999
FreeCAD v0.20 29177 (Git)
  0
SECTION
  2
HEADER
  9
$ACADVER
  1
AC1014
  9
$ACADMAINTVER
 70
     9
  9
$DWGCODEPAGE
  3
ANSI_1252
  9
$TEXTSTYLE
  7
STANDARD
  9
$DIMSTYLE
  2
STANDARD
  9
$DIMTXSTY
  7
STANDARD
  9
$CMLSTYLE
  2
STANDARD
  9
$LUNITS
 70
2
  9
$INSUNITS
 70
4
  9
$PEXTMAX
 10
50
 20
50
 30
50
  9
$PEXTMIN
 10
0
 20
0
 30
0
  9
$HANDSEED
  5
FFFF
  0
ENDSEC
  0
SECTION
  2
CLASSES
  0
CLASS
  1
ACDBDICTIONARYWDFLT
  2
AcDbDictionaryWithDefault
  3
ObjectDBX Classes
 90
        0
280
     0
281
     0
  0
CLASS
  1
XRECORD
  2
AcDbXrecord
  3
ObjectDBX Classes
 90
        0
280
     0
281
     0
  0
CLASS
  1
LWPOLYLINE
  2
AcDbPolyline
  3
ObjectDBX Classes
 90
        0
280
     0
281
     1
  0
ENDSEC
  0
SECTION
  2
TABLES
  0
TABLE
  2
VPORT
  5
20
330
0
100
AcDbSymbolTable
 70
     1
  0
VPORT
  5
21
330
20
100
AcDbSymbolTableRecord
100
AcDbViewportTableRecord
  2
*ACTIVE
 70
     0
  0
ENDTAB
  0
TABLE
  2
LTYPE
  5
22
330
0
100
AcDbSymbolTable
 70
     1
  0
LTYPE
  5
23
330
21
100
AcDbSymbolTableRecord
100
AcDbLinetypeTableRecord
  2
BYBLOCK
 70
     0
  3

 72
    65
 73
     0
 40
0.0
  0
LTYPE
  5
24
330
21
100
AcDbSymbolTableRecord
100
AcDbLinetypeTableRecord
  2
BYLAYER
 70
     0
  3

 72
    65
 73
     0
 40
0.0
  0
LTYPE
  5
25
330
21
100
AcDbSymbolTableRecord
100
AcDbLinetypeTableRecord
  2
CONTINUOUS
 70
     0
  3
Solid line
 72
    65
 73
     0
 40
0.0
  0
ENDTAB
  0
TABLE
  2
LAYER
  5
B32
330
0
100
AcDbSymbolTable
 70
3
  0
LAYER
  5
B33
330
B32
100
AcDbSymbolTableRecord
100
AcDbLayerTableRecord
  2
0
 70
   0
 62
   7
  6
CONTINUOUS
  0
LAYER
  5
B34
330
B32
100
AcDbSymbolTableRecord
100
AcDbLayerTableRecord
  2
none
 70
    0
 62
    7
  6
CONTINUOUS
  0
LAYER
  5
B35
330
B32
100
AcDbSymbolTableRecord
100
AcDbLayerTableRecord
  2
Sketch
 70
    0
 62
    7
  6
CONTINUOUS
  0
ENDTAB
  0
TABLE
  2
STYLE
  5
70
330
0
100
AcDbSymbolTable
 70
     2
  0
STYLE
  5
71
330
70
100
AcDbSymbolTableRecord
100
AcDbTextStyleTableRecord
  2
STANDARD
 70
     0
 40
0.0
 41
1.0
 50
0.0
 71
     0
 42
2.5
  3
arial.ttf
  4

  0
STYLE
  5
72
330
70
100
AcDbSymbolTableRecord
100
AcDbTextStyleTableRecord
  2
ANNOTATIVE
 70
     0
 40
0.0
 41
1.0
 50
0.0
 71
     0
 42
2.5
  3
arial.ttf
  4

  0
ENDTAB
  0
TABLE
  2
VIEW
  5
73
330
0
100
AcDbSymbolTable
 70
     0
  0
ENDTAB
  0
TABLE
  2
UCS
  5
74
330
0
100
AcDbSymbolTable
 70
     0
  0
ENDTAB
  0
TABLE
  2
APPID
  5
75
330
0
100
AcDbSymbolTable
 70
     2
  0
APPID
  5
76
330
75
100
AcDbSymbolTableRecord
100
AcDbRegAppTableRecord
  2
ACAD
 70
     0
  0
APPID
  5
77
330
75
100
AcDbSymbolTableRecord
100
AcDbRegAppTableRecord
  2
ACADANNOTATIVE
 70
     0
  0
ENDTAB
  0
TABLE
  2
DIMSTYLE
  5
78
330
0
100
AcDbSymbolTable
 70
     2
  0
DIMSTYLE
105
79
330
78
100
AcDbSymbolTableRecord
100
AcDbDimStyleTableRecord
  2
STANDARD
 70
     0
  3

  4

  5

  6

  7

 40
0.0
 41
2.5
 42
0.625
 43
3.75
 44
1.25
 45
0.0
 46
0.0
 47
0.0
 48
0.0
140
2.5
141
2.5
142
0.0
143
0.03937007874016
144
1.0
145
0.0
146
1.0
147
0.625
 71
     0
 72
     0
 73
     0
 74
     0
 75
     0
 76
     0
 77
     1
 78
     8
170
     0
171
     3
172
     1
173
     0
174
     0
175
     0
176
     0
177
     0
178
     0
270
     2
271
     2
272
     2
273
     2
274
     3
340
71
275
     0
280
     0
281
     0
282
     0
283
     0
284
     8
285
     0
286
     0
287
     3
288
     0
  0
ENDTAB
  0
TABLE
  2
BLOCK_RECORD
  5
A01
330
0
100
AcDbSymbolTable
  70
5
  0
BLOCK_RECORD
  5
A02
330
A01
100
AcDbSymbolTableRecord
100
AcDbBlockTableRecord
  2
*MODEL_SPACE
  0
BLOCK_RECORD
  5
A03
330
A01
100
AcDbSymbolTableRecord
100
AcDbBlockTableRecord
  2
*PAPER_SPACE
  0
ENDTAB
  0
ENDSEC
  0
SECTION
  2
BLOCKS
  0
BLOCK
  5
A04
330
A02
100
AcDbEntity
  8
0
100
AcDbBlockBegin
  2
*MODEL_SPACE
 70
   0
 10
0
 20
0
 30
0
  3
*MODEL_SPACE
  1
 
  0
ENDBLK
  5
A05
330
A02
100
AcDbEntity
  8
0
100
AcDbBlockEnd
  0
BLOCK
  5
A06
330
A03
100
AcDbEntity
 67
1
  8
0
100
AcDbBlockBegin
  2
*PAPER_SPACE
 70
   0
 10
0
 20
0
 30
0
  3
*PAPER_SPACE
  1
 
  0
ENDBLK
  5
A07
330
A03
100
AcDbEntity
 67
    1
  8
0
100
AcDbBlockEnd
  0
ENDSEC
  0
SECTION
  2
ENTITIES
  0
LINE
  5
A08
330
A02
100
AcDbEntity
  8
Sketch
100
AcDbLine
 10
0
 20
0
 30
0
 11
285.375
 21
0
 31
0
  0
LINE
  5
A09
330
A02
100
AcDbEntity
  8
Sketch
100
AcDbLine
 10
285.375
 20
0
 30
0
 11
285.375
 21
94.93
 31
0
  0
LINE
  5
A0A
330
A02
100
AcDbEntity
  8
Sketch
100
AcDbLine
 10
285.375
 20
94.93
 30
0
 11
0
 21
94.93
 31
0
  0
LINE
  5
A0B
330
A02
100
AcDbEntity
  8
Sketch
100
AcDbLine
 10
0
 20
94.93
 30
0
 11
0
 21
0
 31
0
  0
LINE
  5
A0C
330
A02
100
AcDbEntity
  8
Sketch
100
AcDbLine
 10
1.53651
 20
91.9671
 30
0
 11
17.1373
 21
91.9671
 31
0
  0
LINE
  5
A0D
330
A02
100
AcDbEntity
  8
Sketch
100
AcDbLine
 10
17.1373
 20
91.9671
 30
0
 11
17.1373
 21
79.1665
 31
0
  0
LINE
  5
A0E
330
A02
100
AcDbEntity
  8
Sketch
100
AcDbLine
 10
17.1373
 20
79.1665
 30
0
 11
1.53651
 21
79.1665
 31
0
  0
LINE
  5
A0F
330
A02
100
AcDbEntity
  8
Sketch
100
AcDbLine
 10
1.53651
 20
79.1665
 30
0
 11
1.53651
 21
91.9671
 31
0
  0
LINE
  5
A10
330
A02
100
AcDbEntity
  8
Sketch
100
AcDbLine
 10
20.5865
 20
91.9671
 30
0
 11
36.1873
 21
91.9671
 31
0
  0
LINE
  5
A11
330
A02
100
AcDbEntity
  8
Sketch
100
AcDbLine
 10
36.1873
 20
91.9671
 30
0
 11
36.1873
 21
79.1665
 31
0
  0
LINE
  5
A12
330
A02
100
AcDbEntity
  8
Sketch
100
AcDbLine
 10
36.1873
 20
79.1665
 30
0
 11
20.5865
 21
79.1665
 31
0
  0
LINE
  5
A13
330
A02
100
AcDbEntity
  8
Sketch
100
AcDbLine
 10
20.5865
 20
79.1665
 30
0
 11
20.5865
 21
91.9671
 31
0
  0
LINE
  5
A14
330
A02
100
AcDbEntity
  8
Sketch
100
AcDbLine
 10
39.6365
 20
91.9671
 30
0
 11
55.2373
 21
91.9671
 31
0
  0
LINE
  5
A15
330
A02
100
AcDbEntity
  8
Sketch
100
AcDbLine
 10
55.2373
 20
91.9671
 30
0
 11
55.2373
 21
79.1665
 31
0
  0
LINE
  5
A16
330
A02
100
AcDbEntity
  8
Sketch
100
AcDbLine
 10
55.2373
 20
79.1665
 30
0
 11
39.6365
 21
79.1665
 31
0
  0
LINE
  5
A17
330
A02
100
AcDbEntity
  8
Sketch
100
AcDbLine
 10
39.6365
 20
79.1665
 30
0
 11
39.6365
 21
91.9671
 31
0
  0
LINE
  5
A18
330
A02
100
AcDbEntity
  8
Sketch
100
AcDbLine
 10
58.6865
 20
91.9671
 30
0
 11
74.2872
 21
91.9671
 31
0
  0
LINE
  5
A19
330
A02
100
AcDbEntity
  8
Sketch
100
AcDbLine
 10
74.2872
 20
91.9671
 30
0
 11
74.2872
 21
79.1665
 31
0
  0
LINE
  5
A1A
330
A02
100
AcDbEntity
  8
Sketch
100
AcDbLine
 10
74.2872
 20
79.1665
 30
0
 11
58.6865
 21
79.1665
 31
0
  0
LINE
  5
A1B
330
A02
100
AcDbEntity
  8
Sketch
100
AcDbLine
 10
58.6865
 20
79.1665
 30
0
 11
58.6865
 21
91.9671
 31
0
  0
LINE
  5
A1C
330
A02
100
AcDbEntity
  8
Sketch
100
AcDbLine
 10
77.7364
 20
91.9671
 30
0
 11
93.3372
 21
91.9671
 31
0
  0
LINE
  5
A1D
330
A02
100
AcDbEntity
  8
Sketch
100
AcDbLine
 10
93.3372
 20
91.9671
 30
0
 11
93.3372
 21
79.1665
 31
0
  0
LINE
  5
A1E
330
A02
100
AcDbEntity
  8
Sketch
100
AcDbLine
 10
93.3372
 20
79.1665
 30
0
 11
77.7364
 21
79.1665
 31
0
  0
LINE
  5
A1F
330
A02
100
AcDbEntity
  8
Sketch
100
AcDbLine
 10
77.7364
 20
79.1665
 30
0
 11
77.7364
 21
91.9671
 31
0
  0
LINE
  5
A20
330
A02
100
AcDbEntity
  8
Sketch
100
AcDbLine
 10
96.7864
 20
91.9671
 30
0
 11
112.387
 21
91.9671
 31
0
  0
LINE
  5
A21
330
A02
100
AcDbEntity
  8
Sketch
100
AcDbLine
 10
112.387
 20
91.9671
 30
0
 11
112.387
 21
79.1665
 31
0
  0
LINE
  5
A22
330
A02
100
AcDbEntity
  8
Sketch
100
AcDbLine
 10
112.387
 20
79.1665
 30
0
 11
96.7864
 21
79.1665
 31
0
  0
LINE
  5
A23
330
A02
100
AcDbEntity
  8
Sketch
100
AcDbLine
 10
96.7864
 20
79.1665
 30
0
 11
96.7864
 21
91.9671
 31
0
  0
LINE
  5
A24
330
A02
100
AcDbEntity
  8
Sketch
100
AcDbLine
 10
115.836
 20
91.9671
 30
0
 11
131.437
 21
91.9671
 31
0
  0
LINE
  5
A25
330
A02
100
AcDbEntity
  8
Sketch
100
AcDbLine
 10
131.437
 20
91.9671
 30
0
 11
131.437
 21
79.1665
 31
0
  0
LINE
  5
A26
330
A02
100
AcDbEntity
  8
Sketch
100
AcDbLine
 10
131.437
 20
79.1665
 30
0
 11
115.836
 21
79.1665
 31
0
  0
LINE
  5
A27
330
A02
100
AcDbEntity
  8
Sketch
100
AcDbLine
 10
115.836
 20
79.1665
 30
0
 11
115.836
 21
91.9671
 31
0
  0
LINE
  5
A28
330
A02
100
AcDbEntity
  8
Sketch
100
AcDbLine
 10
134.886
 20
91.9671
 30
0
 11
150.487
 21
91.9671
 31
0
  0
LINE
  5
A29
330
A02
100
AcDbEntity
  8
Sketch
100
AcDbLine
 10
150.487
 20
91.9671
 30
0
 11
150.487
 21
79.1665
 31
0
  0
LINE
  5
A2A
330
A02
100
AcDbEntity
  8
Sketch
100
AcDbLine
 10
150.487
 20
79.1665
 30
0
 11
134.886
 21
79.1665
 31
0
  0
LINE
  5
A2B
330
A02
100
AcDbEntity
  8
Sketch
100
AcDbLine
 10
134.886
 20
79.1665
 30
0
 11
134.886
 21
91.9671
 31
0
  0
LINE
  5
A2C
330
A02
100
AcDbEntity
  8
Sketch
100
AcDbLine
 10
153.936
 20
91.9671
 30
0
 11
169.537
 21
91.9671
 31
0
  0
LINE
  5
A2D
330
A02
100
AcDbEntity
  8
Sketch
100
AcDbLine
 10
169.537
 20
91.9671
 30
0
 11
169.537
 21
79.1665
 31
0
  0
LINE
  5
A2E
330
A02
100
AcDbEntity
  8
Sketch
100
AcDbLine
 10
169.537
 20
79.1665
 30
0
 11
153.936
 21
79.1665
 31
0
  0
LINE
  5
A2F
330
A02
100
AcDbEntity
  8
Sketch
100
AcDbLine
 10
153.936
 20
79.1665
 30
0
 11
153.936
 21
91.9671
 31
0
  0
LINE
  5
A30
330
A02
100
AcDbEntity
  8
Sketch
100
AcDbLine
 10
172.986
 20
91.9671
 30
0
 11
188.587
 21
91.9671
 31
0
  0
LINE
  5
A31
330
A02
100
AcDbEntity
  8
Sketch
100
AcDbLine
 10
188.587
 20
91.9671
 30
0
 11
188.587
 21
79.1665
 31
0
  0
LINE
  5
A32
330
A02
100
AcDbEntity
  8
Sketch
100
AcDbLine
 10
188.587
 20
79.1665
 30
0
 11
172.986
 21
79.1665
 31
0
  0
LINE
  5
A33
330
A02
100
AcDbEntity
  8
Sketch
100
AcDbLine
 10
172.986
 20
79.1665
 30
0
 11
172.986
 21
91.9671
 31
0
  0
LINE
  5
A34
330
A02
100
AcDbEntity
  8
Sketch
100
AcDbLine
 10
192.036
 20
91.9671
 30
0
 11
207.637
 21
91.9671
 31
0
  0
LINE
  5
A35
330
A02
100
AcDbEntity
  8
Sketch
100
AcDbLine
 10
207.637
 20
91.9671
 30
0
 11
207.637
 21
79.1665
 31
0
  0
LINE
  5
A36
330
A02
100
AcDbEntity
  8
Sketch
100
AcDbLine
 10
207.637
 20
79.1665
 30
0
 11
192.036
 21
79.1665
 31
0
  0
LINE
  5
A37
330
A02
100
AcDbEntity
  8
Sketch
100
AcDbLine
 10
192.036
 20
79.1665
 30
0
 11
192.036
 21
91.9671
 31
0
  0
LINE
  5
A38
330
A02
100
AcDbEntity
  8
Sketch
100
AcDbLine
 10
211.086
 20
91.9671
 30
0
 11
226.687
 21
91.9671
 31
0
  0
LINE
  5
A39
330
A02
100
AcDbEntity
  8
Sketch
100
AcDbLine
 10
226.687
 20
91.9671
 30
0
 11
226.687
 21
79.1665
 31
0
  0
LINE
  5
A3A
330
A02
100
AcDbEntity
  8
Sketch
100
AcDbLine
 10
226.687
 20
79.1665
 30
0
 11
211.086
 21
79.1665
 31
0
  0
LINE
  5
A3B
330
A02
100
AcDbEntity
  8
Sketch
100
AcDbLine
 10
211.086
 20
79.1665
 30
0
 11
211.086
 21
91.9671
 31
0
  0
LINE
  5
A3C
330
A02
100
AcDbEntity
  8
Sketch
100
AcDbLine
 10
230.136
 20
91.9671
 30
0
 11
245.737
 21
91.9671
 31
0
  0
LINE
  5
A3D
330
A02
100
AcDbEntity
  8
Sketch
100
AcDbLine
 10
245.737
 20
91.9671
 30
0
 11
245.737
 21
79.1665
 31
0
  0
LINE
  5
A3E
330
A02
100
AcDbEntity
  8
Sketch
100
AcDbLine
 10
245.737
 20
79.1665
 30
0
 11
230.136
 21
79.1665
 31
0
  0
LINE
  5
A3F
330
A02
100
AcDbEntity
  8
Sketch
100
AcDbLine
 10
230.136
 20
79.1665
 30
0
 11
230.136
 21
91.9671
 31
0
  0
LINE
  5
A40
330
A02
100
AcDbEntity
  8
Sketch
100
AcDbLine
 10
258.711
 20
91.9671
 30
0
 11
274.312
 21
91.9671
 31
0
  0
LINE
  5
A41
330
A02
100
AcDbEntity
  8
Sketch
100
AcDbLine
 10
274.312
 20
91.9671
 30
0
 11
274.312
 21
79.1665
 31
0
  0
LINE
  5
A42
330
A02
100
AcDbEntity
  8
Sketch
100
AcDbLine
 10
274.312
 20
79.1665
 30
0
 11
258.711
 21
79.1665
 31
0
  0
LINE
  5
A43
330
A02
100
AcDbEntity
  8
Sketch
100
AcDbLine
 10
258.711
 20
79.1665
 30
0
 11
258.711
 21
91.9671
 31
0
  0
LINE
  5
A44
330
A02
100
AcDbEntity
  8
Sketch
100
AcDbLine
 10
251.082
 20
81.6938
 30
0
 11
253.749
 21
81.6938
 31
0
  0
LINE
  5
A45
330
A02
100
AcDbEntity
  8
Sketch
100
AcDbLine
 10
253.749
 20
81.6938
 30
0
 11
253.749
 21
76.4822
 31
0
  0
LINE
  5
A46
330
A02
100
AcDbEntity
  8
Sketch
100
AcDbLine
 10
253.749
 20
76.4822
 30
0
 11
251.082
 21
76.4822
 31
0
  0
LINE
  5
A47
330
A02
100
AcDbEntity
  8
Sketch
100
AcDbLine
 10
251.082
 20
76.4822
 30
0
 11
251.082
 21
81.6938
 31
0
  0
LINE
  5
A48
330
A02
100
AcDbEntity
  8
Sketch
100
AcDbLine
 10
279.274
 20
81.6938
 30
0
 11
281.941
 21
81.6938
 31
0
  0
LINE
  5
A49
330
A02
100
AcDbEntity
  8
Sketch
100
AcDbLine
 10
281.941
 20
81.6938
 30
0
 11
281.941
 21
76.4822
 31
0
  0
LINE
  5
A4A
330
A02
100
AcDbEntity
  8
Sketch
100
AcDbLine
 10
281.941
 20
76.4822
 30
0
 11
279.274
 21
76.4822
 31
0
  0
LINE
  5
A4B
330
A02
100
AcDbEntity
  8
Sketch
100
AcDbLine
 10
279.274
 20
76.4822
 30
0
 11
279.274
 21
81.6938
 31
0
  0
LINE
  5
A4C
330
A02
100
AcDbEntity
  8
Sketch
100
AcDbLine
 10
6.30039
 20
72.9171
 30
0
 11
21.9012
 21
72.9171
 31
0
  0
LINE
  5
A4D
330
A02
100
AcDbEntity
  8
Sketch
100
AcDbLine
 10
21.9012
 20
72.9171
 30
0
 11
21.9012
 21
60.1165
 31
0
  0
LINE
  5
A4E
330
A02
100
AcDbEntity
  8
Sketch
100
AcDbLine
 10
21.9012
 20
60.1165
 30
0
 11
6.30039
 21
60.1165
 31
0
  0
LINE
  5
A4F
330
A02
100
AcDbEntity
  8
Sketch
100
AcDbLine
 10
6.30039
 20
60.1165
 30
0
 11
6.30039
 21
72.9171
 31
0
  0
LINE
  5
A50
330
A02
100
AcDbEntity
  8
Sketch
100
AcDbLine
 10
30.1115
 20
72.9171
 30
0
 11
45.7123
 21
72.9171
 31
0
  0
LINE
  5
A51
330
A02
100
AcDbEntity
  8
Sketch
100
AcDbLine
 10
45.7123
 20
72.9171
 30
0
 11
45.7123
 21
60.1165
 31
0
  0
LINE
  5
A52
330
A02
100
AcDbEntity
  8
Sketch
100
AcDbLine
 10
45.7123
 20
60.1165
 30
0
 11
30.1115
 21
60.1165
 31
0
  0
LINE
  5
A53
330
A02
100
AcDbEntity
  8
Sketch
100
AcDbLine
 10
30.1115
 20
60.1165
 30
0
 11
30.1115
 21
72.9171
 31
0
  0
LINE
  5
A54
330
A02
100
AcDbEntity
  8
Sketch
100
AcDbLine
 10
49.1615
 20
72.9171
 30
0
 11
64.7623
 21
72.9171
 31
0
  0
LINE
  5
A55
330
A02
100
AcDbEntity
  8
Sketch
100
AcDbLine
 10
64.7623
 20
72.9171
 30
0
 11
64.7623
 21
60.1165
 31
0
  0
LINE
  5
A56
330
A02
100
AcDbEntity
  8
Sketch
100
AcDbLine
 10
64.7623
 20
60.1165
 30
0
 11
49.1615
 21
60.1165
 31
0
  0
LINE
  5
A57
330
A02
100
AcDbEntity
  8
Sketch
100
AcDbLine
 10
49.1615
 20
60.1165
 30
0
 11
49.1615
 21
72.9171
 31
0
  0
LINE
  5
A58
330
A02
100
AcDbEntity
  8
Sketch
100
AcDbLine
 10
68.2115
 20
72.9171
 30
0
 11
83.8122
 21
72.9171
 31
0
  0
LINE
  5
A59
330
A02
100
AcDbEntity
  8
Sketch
100
AcDbLine
 10
83.8122
 20
72.9171
 30
0
 11
83.8122
 21
60.1165
 31
0
  0
LINE
  5
A5A
330
A02
100
AcDbEntity
  8
Sketch
100
AcDbLine
 10
83.8122
 20
60.1165
 30
0
 11
68.2115
 21
60.1165
 31
0
  0
LINE
  5
A5B
330
A02
100
AcDbEntity
  8
Sketch
100
AcDbLine
 10
68.2115
 20
60.1165
 30
0
 11
68.2115
 21
72.9171
 31
0
  0
LINE
  5
A5C
330
A02
100
AcDbEntity
  8
Sketch
100
AcDbLine
 10
87.2614
 20
72.9171
 30
0
 11
102.862
 21
72.9171
 31
0
  0
LINE
  5
A5D
330
A02
100
AcDbEntity
  8
Sketch
100
AcDbLine
 10
102.862
 20
72.9171
 30
0
 11
102.862
 21
60.1165
 31
0
  0
LINE
  5
A5E
330
A02
100
AcDbEntity
  8
Sketch
100
AcDbLine
 10
102.862
 20
60.1165
 30
0
 11
87.2614
 21
60.1165
 31
0
  0
LINE
  5
A5F
330
A02
100
AcDbEntity
  8
Sketch
100
AcDbLine
 10
87.2614
 20
60.1165
 30
0
 11
87.2614
 21
72.9171
 31
0
  0
LINE
  5
A60
330
A02
100
AcDbEntity
  8
Sketch
100
AcDbLine
 10
106.311
 20
72.9171
 30
0
 11
121.912
 21
72.9171
 31
0
  0
LINE
  5
A61
330
A02
100
AcDbEntity
  8
Sketch
100
AcDbLine
 10
121.912
 20
72.9171
 30
0
 11
121.912
 21
60.1165
 31
0
  0
LINE
  5
A62
330
A02
100
AcDbEntity
  8
Sketch
100
AcDbLine
 10
121.912
 20
60.1165
 30
0
 11
106.311
 21
60.1165
 31
0
  0
LINE
  5
A63
330
A02
100
AcDbEntity
  8
Sketch
100
AcDbLine
 10
106.311
 20
60.1165
 30
0
 11
106.311
 21
72.9171
 31
0
  0
LINE
  5
A64
330
A02
100
AcDbEntity
  8
Sketch
100
AcDbLine
 10
125.361
 20
72.9171
 30
0
 11
140.962
 21
72.9171
 31
0
  0
LINE
  5
A65
330
A02
100
AcDbEntity
  8
Sketch
100
AcDbLine
 10
140.962
 20
72.9171
 30
0
 11
140.962
 21
60.1165
 31
0
  0
LINE
  5
A66
330
A02
100
AcDbEntity
  8
Sketch
100
AcDbLine
 10
140.962
 20
60.1165
 30
0
 11
125.361
 21
60.1165
 31
0
  0
LINE
  5
A67
330
A02
100
AcDbEntity
  8
Sketch
100
AcDbLine
 10
125.361
 20
60.1165
 30
0
 11
125.361
 21
72.9171
 31
0
  0
LINE
  5
A68
330
A02
100
AcDbEntity
  8
Sketch
100
AcDbLine
 10
144.411
 20
72.9171
 30
0
 11
160.012
 21
72.9171
 31
0
  0
LINE
  5
A69
330
A02
100
AcDbEntity
  8
Sketch
100
AcDbLine
 10
160.012
 20
72.9171
 30
0
 11
160.012
 21
60.1165
 31
0
  0
LINE
  5
A6A
330
A02
100
AcDbEntity
  8
Sketch
100
AcDbLine
 10
160.012
 20
60.1165
 30
0
 11
144.411
 21
60.1165
 31
0
  0
LINE
  5
A6B
330
A02
100
AcDbEntity
  8
Sketch
100
AcDbLine
 10
144.411
 20
60.1165
 30
0
 11
144.411
 21
72.9171
 31
0
  0
LINE
  5
A6C
330
A02
100
AcDbEntity
  8
Sketch
100
AcDbLine
 10
163.461
 20
72.9171
 30
0
 11
179.062
 21
72.9171
 31
0
  0
LINE
  5
A6D
330
A02
100
AcDbEntity
  8
Sketch
100
AcDbLine
 10
179.062
 20
72.9171
 30
0
 11
179.062
 21
60.1165
 31
0
  0
LINE
  5
A6E
330
A02
100
AcDbEntity
  8
Sketch
100
AcDbLine
 10
179.062
 20
60.1165
 30
0
 11
163.461
 21
60.1165
 31
0
  0
LINE
  5
A6F
330
A02
100
AcDbEntity
  8
Sketch
100
AcDbLine
 10
163.461
 20
60.1165
 30
0
 11
163.461
 21
72.9171
 31
0
  0
LINE
  5
A70
330
A02
100
AcDbEntity
  8
Sketch
100
AcDbLine
 10
182.511
 20
72.9171
 30
0
 11
198.112
 21
72.9171
 31
0
  0
LINE
  5
A71
330
A02
100
AcDbEntity
  8
Sketch
100
AcDbLine
 10
198.112
 20
72.9171
 30
0
 11
198.112
 21
60.1165
 31
0
  0
LINE
  5
A72
330
A02
100
AcDbEntity
  8
Sketch
100
AcDbLine
 10
198.112
 20
60.1165
 30
0
 11
182.511
 21
60.1165
 31
0
  0
LINE
  5
A73
330
A02
100
AcDbEntity
  8
Sketch
100
AcDbLine
 10
182.511
 20
60.1165
 30
0
 11
182.511
 21
72.9171
 31
0
  0
LINE
  5
A74
330
A02
100
AcDbEntity
  8
Sketch
100
AcDbLine
 10
201.561
 20
72.9171
 30
0
 11
217.162
 21
72.9171
 31
0
  0
LINE
  5
A75
330
A02
100
AcDbEntity
  8
Sketch
100
AcDbLine
 10
217.162
 20
72.9171
 30
0
 11
217.162
 21
60.1165
 31
0
  0
LINE
  5
A76
330
A02
100
AcDbEntity
  8
Sketch
100
AcDbLine
 10
217.162
 20
60.1165
 30
0
 11
201.561
 21
60.1165
 31
0
  0
LINE
  5
A77
330
A02
100
AcDbEntity
  8
Sketch
100
AcDbLine
 10
201.561
 20
60.1165
 30
0
 11
201.561
 21
72.9171
 31
0
  0
LINE
  5
A78
330
A02
100
AcDbEntity
  8
Sketch
100
AcDbLine
 10
220.611
 20
72.9171
 30
0
 11
236.212
 21
72.9171
 31
0
  0
LINE
  5
A79
330
A02
100
AcDbEntity
  8
Sketch
100
AcDbLine
 10
236.212
 20
72.9171
 30
0
 11
236.212
 21
60.1165
 31
0
  0
LINE
  5
A7A
330
A02
100
AcDbEntity
  8
Sketch
100
AcDbLine
 10
236.212
 20
60.1165
 30
0
 11
220.611
 21
60.1165
 31
0
  0
LINE
  5
A7B
330
A02
100
AcDbEntity
  8
Sketch
100
AcDbLine
 10
220.611
 20
60.1165
 30
0
 11
220.611
 21
72.9171
 31
0
  0
LINE
  5
A7C
330
A02
100
AcDbEntity
  8
Sketch
100
AcDbLine
 10
239.661
 20
72.9171
 30
0
 11
255.262
 21
72.9171
 31
0
  0
LINE
  5
A7D
330
A02
100
AcDbEntity
  8
Sketch
100
AcDbLine
 10
255.262
 20
72.9171
 30
0
 11
255.262
 21
60.1165
 31
0
  0
LINE
  5
A7E
330
A02
100
AcDbEntity
  8
Sketch
100
AcDbLine
 10
255.262
 20
60.1165
 30
0
 11
239.661
 21
60.1165
 31
0
  0
LINE
  5
A7F
330
A02
100
AcDbEntity
  8
Sketch
100
AcDbLine
 10
239.661
 20
60.1165
 30
0
 11
239.661
 21
72.9171
 31
0
  0
LINE
  5
A80
330
A02
100
AcDbEntity
  8
Sketch
100
AcDbLine
 10
265.007
 20
64.7908
 30
0
 11
277.808
 21
64.7908
 31
0
  0
LINE
  5
A81
330
A02
100
AcDbEntity
  8
Sketch
100
AcDbLine
 10
277.808
 20
64.7908
 30
0
 11
277.808
 21
49.19
 31
0
  0
LINE
  5
A82
330
A02
100
AcDbEntity
  8
Sketch
100
AcDbLine
 10
277.808
 20
49.19
 30
0
 11
265.007
 21
49.19
 31
0
  0
LINE
  5
A83
330
A02
100
AcDbEntity
  8
Sketch
100
AcDbLine
 10
265.007
 20
49.19
 30
0
 11
265.007
 21
64.7908
 31
0
  0
LINE
  5
A84
330
A02
100
AcDbEntity
  8
Sketch
100
AcDbLine
 10
275.275
 20
72.421
 30
0
 11
280.487
 21
72.421
 31
0
  0
LINE
  5
A85
330
A02
100
AcDbEntity
  8
Sketch
100
AcDbLine
 10
280.487
 20
72.421
 30
0
 11
280.487
 21
69.754
 31
0
  0
LINE
  5
A86
330
A02
100
AcDbEntity
  8
Sketch
100
AcDbLine
 10
280.487
 20
69.754
 30
0
 11
275.275
 21
69.754
 31
0
  0
LINE
  5
A87
330
A02
100
AcDbEntity
  8
Sketch
100
AcDbLine
 10
275.275
 20
69.754
 30
0
 11
275.275
 21
72.421
 31
0
  0
LINE
  5
A88
330
A02
100
AcDbEntity
  8
Sketch
100
AcDbLine
 10
275.275
 20
44.2291
 30
0
 11
280.487
 21
44.2291
 31
0
  0
LINE
  5
A89
330
A02
100
AcDbEntity
  8
Sketch
100
AcDbLine
 10
280.487
 20
44.2291
 30
0
 11
280.487
 21
41.5621
 31
0
  0
LINE
  5
A8A
330
A02
100
AcDbEntity
  8
Sketch
100
AcDbLine
 10
280.487
 20
41.5621
 30
0
 11
275.275
 21
41.5621
 31
0
  0
LINE
  5
A8B
330
A02
100
AcDbEntity
  8
Sketch
100
AcDbLine
 10
275.275
 20
41.5621
 30
0
 11
275.275
 21
44.2291
 31
0
  0
LINE
  5
A8C
330
A02
100
AcDbEntity
  8
Sketch
100
AcDbLine
 10
6.30039
 20
53.8671
 30
0
 11
21.9012
 21
53.8671
 31
0
  0
LINE
  5
A8D
330
A02
100
AcDbEntity
  8
Sketch
100
AcDbLine
 10
21.9012
 20
53.8671
 30
0
 11
21.9012
 21
41.0665
 31
0
  0
LINE
  5
A8E
330
A02
100
AcDbEntity
  8
Sketch
100
AcDbLine
 10
21.9012
 20
41.0665
 30
0
 11
6.30039
 21
41.0665
 31
0
  0
LINE
  5
A8F
330
A02
100
AcDbEntity
  8
Sketch
100
AcDbLine
 10
6.30039
 20
41.0665
 30
0
 11
6.30039
 21
53.8671
 31
0
  0
LINE
  5
A90
330
A02
100
AcDbEntity
  8
Sketch
100
AcDbLine
 10
34.8754
 20
53.8671
 30
0
 11
50.4762
 21
53.8671
 31
0
  0
LINE
  5
A91
330
A02
100
AcDbEntity
  8
Sketch
100
AcDbLine
 10
50.4762
 20
53.8671
 30
0
 11
50.4762
 21
41.0665
 31
0
  0
LINE
  5
A92
330
A02
100
AcDbEntity
  8
Sketch
100
AcDbLine
 10
50.4762
 20
41.0665
 30
0
 11
34.8754
 21
41.0665
 31
0
  0
LINE
  5
A93
330
A02
100
AcDbEntity
  8
Sketch
100
AcDbLine
 10
34.8754
 20
41.0665
 30
0
 11
34.8754
 21
53.8671
 31
0
  0
LINE
  5
A94
330
A02
100
AcDbEntity
  8
Sketch
100
AcDbLine
 10
53.9254
 20
53.8671
 30
0
 11
69.5262
 21
53.8671
 31
0
  0
LINE
  5
A95
330
A02
100
AcDbEntity
  8
Sketch
100
AcDbLine
 10
69.5262
 20
53.8671
 30
0
 11
69.5262
 21
41.0665
 31
0
  0
LINE
  5
A96
330
A02
100
AcDbEntity
  8
Sketch
100
AcDbLine
 10
69.5262
 20
41.0665
 30
0
 11
53.9254
 21
41.0665
 31
0
  0
LINE
  5
A97
330
A02
100
AcDbEntity
  8
Sketch
100
AcDbLine
 10
53.9254
 20
41.0665
 30
0
 11
53.9254
 21
53.8671
 31
0
  0
LINE
  5
A98
330
A02
100
AcDbEntity
  8
Sketch
100
AcDbLine
 10
72.9754
 20
53.8671
 30
0
 11
88.5761
 21
53.8671
 31
0
  0
LINE
  5
A99
330
A02
100
AcDbEntity
  8
Sketch
100
AcDbLine
 10
88.5761
 20
53.8671
 30
0
 11
88.5761
 21
41.0665
 31
0
  0
LINE
  5
A9A
330
A02
100
AcDbEntity
  8
Sketch
100
AcDbLine
 10
88.5761
 20
41.0665
 30
0
 11
72.9754
 21
41.0665
 31
0
  0
LINE
  5
A9B
330
A02
100
AcDbEntity
  8
Sketch
100
AcDbLine
 10
72.9754
 20
41.0665
 30
0
 11
72.9754
 21
53.8671
 31
0
  0
LINE
  5
A9C
330
A02
100
AcDbEntity
  8
Sketch
100
AcDbLine
 10
92.0253
 20
53.8671
 30
0
 11
107.626
 21
53.8671
 31
0
  0
LINE
  5
A9D
330
A02
100
AcDbEntity
  8
Sketch
100
AcDbLine
 10
107.626
 20
53.8671
 30
0
 11
107.626
 21
41.0665
 31
0
  0
LINE
  5
A9E
330
A02
100
AcDbEntity
  8
Sketch
100
AcDbLine
 10
107.626
 20
41.0665
 30
0
 11
92.0253
 21
41.0665
 31
0
  0
LINE
  5
A9F
330
A02
100
AcDbEntity
  8
Sketch
100
AcDbLine
 10
92.0253
 20
41.0665
 30
0
 11
92.0253
 21
53.8671
 31
0
  0
LINE
  5
AA0
330
A02
100
AcDbEntity
  8
Sketch
100
AcDbLine
 10
111.075
 20
53.8671
 30
0
 11
126.676
 21
53.8671
 31
0
  0
LINE
  5
AA1
330
A02
100
AcDbEntity
  8
Sketch
100
AcDbLine
 10
126.676
 20
53.8671
 30
0
 11
126.676
 21
41.0665
 31
0
  0
LINE
  5
AA2
330
A02
100
AcDbEntity
  8
Sketch
100
AcDbLine
 10
126.676
 20
41.0665
 30
0
 11
111.075
 21
41.0665
 31
0
  0
LINE
  5
AA3
330
A02
100
AcDbEntity
  8
Sketch
100
AcDbLine
 10
111.075
 20
41.0665
 30
0
 11
111.075
 21
53.8671
 31
0
  0
LINE
  5
AA4
330
A02
100
AcDbEntity
  8
Sketch
100
AcDbLine
 10
130.125
 20
53.8671
 30
0
 11
145.726
 21
53.8671
 31
0
  0
LINE
  5
AA5
330
A02
100
AcDbEntity
  8
Sketch
100
AcDbLine
 10
145.726
 20
53.8671
 30
0
 11
145.726
 21
41.0665
 31
0
  0
LINE
  5
AA6
330
A02
100
AcDbEntity
  8
Sketch
100
AcDbLine
 10
145.726
 20
41.0665
 30
0
 11
130.125
 21
41.0665
 31
0
  0
LINE
  5
AA7
330
A02
100
AcDbEntity
  8
Sketch
100
AcDbLine
 10
130.125
 20
41.0665
 30
0
 11
130.125
 21
53.8671
 31
0
  0
LINE
  5
AA8
330
A02
100
AcDbEntity
  8
Sketch
100
AcDbLine
 10
149.175
 20
53.8671
 30
0
 11
164.776
 21
53.8671
 31
0
  0
LINE
  5
AA9
330
A02
100
AcDbEntity
  8
Sketch
100
AcDbLine
 10
164.776
 20
53.8671
 30
0
 11
164.776
 21
41.0665
 31
0
  0
LINE
  5
AAA
330
A02
100
AcDbEntity
  8
Sketch
100
AcDbLine
 10
164.776
 20
41.0665
 30
0
 11
149.175
 21
41.0665
 31
0
  0
LINE
  5
AAB
330
A02
100
AcDbEntity
  8
Sketch
100
AcDbLine
 10
149.175
 20
41.0665
 30
0
 11
149.175
 21
53.8671
 31
0
  0
LINE
  5
AAC
330
A02
100
AcDbEntity
  8
Sketch
100
AcDbLine
 10
168.225
 20
53.8671
 30
0
 11
183.826
 21
53.8671
 31
0
  0
LINE
  5
AAD
330
A02
100
AcDbEntity
  8
Sketch
100
AcDbLine
 10
183.826
 20
53.8671
 30
0
 11
183.826
 21
41.0665
 31
0
  0
LINE
  5
AAE
330
A02
100
AcDbEntity
  8
Sketch
100
AcDbLine
 10
183.826
 20
41.0665
 30
0
 11
168.225
 21
41.0665
 31
0
  0
LINE
  5
AAF
330
A02
100
AcDbEntity
  8
Sketch
100
AcDbLine
 10
168.225
 20
41.0665
 30
0
 11
168.225
 21
53.8671
 31
0
  0
LINE
  5
AB0
330
A02
100
AcDbEntity
  8
Sketch
100
AcDbLine
 10
187.275
 20
53.8671
 30
0
 11
202.876
 21
53.8671
 31
0
  0
LINE
  5
AB1
330
A02
100
AcDbEntity
  8
Sketch
100
AcDbLine
 10
202.876
 20
53.8671
 30
0
 11
202.876
 21
41.0665
 31
0
  0
LINE
  5
AB2
330
A02
100
AcDbEntity
  8
Sketch
100
AcDbLine
 10
202.876
 20
41.0665
 30
0
 11
187.275
 21
41.0665
 31
0
  0
LINE
  5
AB3
330
A02
100
AcDbEntity
  8
Sketch
100
AcDbLine
 10
187.275
 20
41.0665
 30
0
 11
187.275
 21
53.8671
 31
0
  0
LINE
  5
AB4
330
A02
100
AcDbEntity
  8
Sketch
100
AcDbLine
 10
206.325
 20
53.8671
 30
0
 11
221.926
 21
53.8671
 31
0
  0
LINE
  5
AB5
330
A02
100
AcDbEntity
  8
Sketch
100
AcDbLine
 10
221.926
 20
53.8671
 30
0
 11
221.926
 21
41.0665
 31
0
  0
LINE
  5
AB6
330
A02
100
AcDbEntity
  8
Sketch
100
AcDbLine
 10
221.926
 20
41.0665
 30
0
 11
206.325
 21
41.0665
 31
0
  0
LINE
  5
AB7
330
A02
100
AcDbEntity
  8
Sketch
100
AcDbLine
 10
206.325
 20
41.0665
 30
0
 11
206.325
 21
53.8671
 31
0
  0
LINE
  5
AB8
330
A02
100
AcDbEntity
  8
Sketch
100
AcDbLine
 10
225.375
 20
53.8671
 30
0
 11
240.976
 21
53.8671
 31
0
  0
LINE
  5
AB9
330
A02
100
AcDbEntity
  8
Sketch
100
AcDbLine
 10
240.976
 20
53.8671
 30
0
 11
240.976
 21
41.0665
 31
0
  0
LINE
  5
ABA
330
A02
100
AcDbEntity
  8
Sketch
100
AcDbLine
 10
240.976
 20
41.0665
 30
0
 11
225.375
 21
41.0665
 31
0
  0
LINE
  5
ABB
330
A02
100
AcDbEntity
  8
Sketch
100
AcDbLine
 10
225.375
 20
41.0665
 30
0
 11
225.375
 21
53.8671
 31
0
  0
LINE
  5
ABC
330
A02
100
AcDbEntity
  8
Sketch
100
AcDbLine
 10
244.425
 20
53.8671
 30
0
 11
260.026
 21
53.8671
 31
0
  0
LINE
  5
ABD
330
A02
100
AcDbEntity
  8
Sketch
100
AcDbLine
 10
260.026
 20
53.8671
 30
0
 11
260.026
 21
41.0665
 31
0
  0
LINE
  5
ABE
330
A02
100
AcDbEntity
  8
Sketch
100
AcDbLine
 10
260.026
 20
41.0665
 30
0
 11
244.425
 21
41.0665
 31
0
  0
LINE
  5
ABF
330
A02
100
AcDbEntity
  8
Sketch
100
AcDbLine
 10
244.425
 20
41.0665
 30
0
 11
244.425
 21
53.8671
 31
0
  0
LINE
  5
AC0
330
A02
100
AcDbEntity
  8
Sketch
100
AcDbLine
 10
3.91914
 20
34.8171
 30
0
 11
19.5199
 21
34.8171
 31
0
  0
LINE
  5
AC1
330
A02
100
AcDbEntity
  8
Sketch
100
AcDbLine
 10
19.5199
 20
34.8171
 30
0
 11
19.5199
 21
22.0165
 31
0
  0
LINE
  5
AC2
330
A02
100
AcDbEntity
  8
Sketch
100
AcDbLine
 10
19.5199
 20
22.0165
 30
0
 11
3.91914
 21
22.0165
 31
0
  0
LINE
  5
AC3
330
A02
100
AcDbEntity
  8
Sketch
100
AcDbLine
 10
3.91914
 20
22.0165
 30
0
 11
3.91914
 21
34.8171
 31
0
  0
LINE
  5
AC4
330
A02
100
AcDbEntity
  8
Sketch
100
AcDbLine
 10
25.3504
 20
34.8171
 30
0
 11
40.9512
 21
34.8171
 31
0
  0
LINE
  5
AC5
330
A02
100
AcDbEntity
  8
Sketch
100
AcDbLine
 10
40.9512
 20
34.8171
 30
0
 11
40.9512
 21
22.0165
 31
0
  0
LINE
  5
AC6
330
A02
100
AcDbEntity
  8
Sketch
100
AcDbLine
 10
40.9512
 20
22.0165
 30
0
 11
25.3504
 21
22.0165
 31
0
  0
LINE
  5
AC7
330
A02
100
AcDbEntity
  8
Sketch
100
AcDbLine
 10
25.3504
 20
22.0165
 30
0
 11
25.3504
 21
34.8171
 31
0
  0
LINE
  5
AC8
330
A02
100
AcDbEntity
  8
Sketch
100
AcDbLine
 10
44.4004
 20
34.8171
 30
0
 11
60.0011
 21
34.8171
 31
0
  0
LINE
  5
AC9
330
A02
100
AcDbEntity
  8
Sketch
100
AcDbLine
 10
60.0011
 20
34.8171
 30
0
 11
60.0011
 21
22.0165
 31
0
  0
LINE
  5
ACA
330
A02
100
AcDbEntity
  8
Sketch
100
AcDbLine
 10
60.0011
 20
22.0165
 30
0
 11
44.4004
 21
22.0165
 31
0
  0
LINE
  5
ACB
330
A02
100
AcDbEntity
  8
Sketch
100
AcDbLine
 10
44.4004
 20
22.0165
 30
0
 11
44.4004
 21
34.8171
 31
0
  0
LINE
  5
ACC
330
A02
100
AcDbEntity
  8
Sketch
100
AcDbLine
 10
63.4503
 20
34.8171
 30
0
 11
79.0511
 21
34.8171
 31
0
  0
LINE
  5
ACD
330
A02
100
AcDbEntity
  8
Sketch
100
AcDbLine
 10
79.0511
 20
34.8171
 30
0
 11
79.0511
 21
22.0165
 31
0
  0
LINE
  5
ACE
330
A02
100
AcDbEntity
  8
Sketch
100
AcDbLine
 10
79.0511
 20
22.0165
 30
0
 11
63.4503
 21
22.0165
 31
0
  0
LINE
  5
ACF
330
A02
100
AcDbEntity
  8
Sketch
100
AcDbLine
 10
63.4503
 20
22.0165
 30
0
 11
63.4503
 21
34.8171
 31
0
  0
LINE
  5
AD0
330
A02
100
AcDbEntity
  8
Sketch
100
AcDbLine
 10
82.5003
 20
34.8171
 30
0
 11
98.1011
 21
34.8171
 31
0
  0
LINE
  5
AD1
330
A02
100
AcDbEntity
  8
Sketch
100
AcDbLine
 10
98.1011
 20
34.8171
 30
0
 11
98.1011
 21
22.0165
 31
0
  0
LINE
  5
AD2
330
A02
100
AcDbEntity
  8
Sketch
100
AcDbLine
 10
98.1011
 20
22.0165
 30
0
 11
82.5003
 21
22.0165
 31
0
  0
LINE
  5
AD3
330
A02
100
AcDbEntity
  8
Sketch
100
AcDbLine
 10
82.5003
 20
22.0165
 30
0
 11
82.5003
 21
34.8171
 31
0
  0
LINE
  5
AD4
330
A02
100
AcDbEntity
  8
Sketch
100
AcDbLine
 10
101.55
 20
34.8171
 30
0
 11
117.151
 21
34.8171
 31
0
  0
LINE
  5
AD5
330
A02
100
AcDbEntity
  8
Sketch
100
AcDbLine
 10
117.151
 20
34.8171
 30
0
 11
117.151
 21
22.0165
 31
0
  0
LINE
  5
AD6
330
A02
100
AcDbEntity
  8
Sketch
100
AcDbLine
 10
117.151
 20
22.0165
 30
0
 11
101.55
 21
22.0165
 31
0
  0
LINE
  5
AD7
330
A02
100
AcDbEntity
  8
Sketch
100
AcDbLine
 10
101.55
 20
22.0165
 30
0
 11
101.55
 21
34.8171
 31
0
  0
LINE
  5
AD8
330
A02
100
AcDbEntity
  8
Sketch
100
AcDbLine
 10
120.6
 20
34.8171
 30
0
 11
136.201
 21
34.8171
 31
0
  0
LINE
  5
AD9
330
A02
100
AcDbEntity
  8
Sketch
100
AcDbLine
 10
136.201
 20
34.8171
 30
0
 11
136.201
 21
22.0165
 31
0
  0
LINE
  5
ADA
330
A02
100
AcDbEntity
  8
Sketch
100
AcDbLine
 10
136.201
 20
22.0165
 30
0
 11
120.6
 21
22.0165
 31
0
  0
LINE
  5
ADB
330
A02
100
AcDbEntity
  8
Sketch
100
AcDbLine
 10
120.6
 20
22.0165
 30
0
 11
120.6
 21
34.8171
 31
0
  0
LINE
  5
ADC
330
A02
100
AcDbEntity
  8
Sketch
100
AcDbLine
 10
139.65
 20
34.8171
 30
0
 11
155.251
 21
34.8171
 31
0
  0
LINE
  5
ADD
330
A02
100
AcDbEntity
  8
Sketch
100
AcDbLine
 10
155.251
 20
34.8171
 30
0
 11
155.251
 21
22.0165
 31
0
  0
LINE
  5
ADE
330
A02
100
AcDbEntity
  8
Sketch
100
AcDbLine
 10
155.251
 20
22.0165
 30
0
 11
139.65
 21
22.0165
 31
0
  0
LINE
  5
ADF
330
A02
100
AcDbEntity
  8
Sketch
100
AcDbLine
 10
139.65
 20
22.0165
 30
0
 11
139.65
 21
34.8171
 31
0
  0
LINE
  5
AE0
330
A02
100
AcDbEntity
  8
Sketch
100
AcDbLine
 10
158.7
 20
34.8171
 30
0
 11
174.301
 21
34.8171
 31
0
  0
LINE
  5
AE1
330
A02
100
AcDbEntity
  8
Sketch
100
AcDbLine
 10
174.301
 20
34.8171
 30
0
 11
174.301
 21
22.0165
 31
0
  0
LINE
  5
AE2
330
A02
100
AcDbEntity
  8
Sketch
100
AcDbLine
 10
174.301
 20
22.0165
 30
0
 11
158.7
 21
22.0165
 31
0
  0
LINE
  5
AE3
330
A02
100
AcDbEntity
  8
Sketch
100
AcDbLine
 10
158.7
 20
22.0165
 30
0
 11
158.7
 21
34.8171
 31
0
  0
LINE
  5
AE4
330
A02
100
AcDbEntity
  8
Sketch
100
AcDbLine
 10
177.75
 20
34.8171
 30
0
 11
193.351
 21
34.8171
 31
0
  0
LINE
  5
AE5
330
A02
100
AcDbEntity
  8
Sketch
100
AcDbLine
 10
193.351
 20
34.8171
 30
0
 11
193.351
 21
22.0165
 31
0
  0
LINE
  5
AE6
330
A02
100
AcDbEntity
  8
Sketch
100
AcDbLine
 10
193.351
 20
22.0165
 30
0
 11
177.75
 21
22.0165
 31
0
  0
LINE
  5
AE7
330
A02
100
AcDbEntity
  8
Sketch
100
AcDbLine
 10
177.75
 20
22.0165
 30
0
 11
177.75
 21
34.8171
 31
0
  0
LINE
  5
AE8
330
A02
100
AcDbEntity
  8
Sketch
100
AcDbLine
 10
196.8
 20
34.8171
 30
0
 11
212.401
 21
34.8171
 31
0
  0
LINE
  5
AE9
330
A02
100
AcDbEntity
  8
Sketch
100
AcDbLine
 10
212.401
 20
34.8171
 30
0
 11
212.401
 21
22.0165
 31
0
  0
LINE
  5
AEA
330
A02
100
AcDbEntity
  8
Sketch
100
AcDbLine
 10
212.401
 20
22.0165
 30
0
 11
196.8
 21
22.0165
 31
0
  0
LINE
  5
AEB
330
A02
100
AcDbEntity
  8
Sketch
100
AcDbLine
 10
196.8
 20
22.0165
 30
0
 11
196.8
 21
34.8171
 31
0
  0
LINE
  5
AEC
330
A02
100
AcDbEntity
  8
Sketch
100
AcDbLine
 10
215.85
 20
34.8171
 30
0
 11
231.451
 21
34.8171
 31
0
  0
LINE
  5
AED
330
A02
100
AcDbEntity
  8
Sketch
100
AcDbLine
 10
231.451
 20
34.8171
 30
0
 11
231.451
 21
22.0165
 31
0
  0
LINE
  5
AEE
330
A02
100
AcDbEntity
  8
Sketch
100
AcDbLine
 10
231.451
 20
22.0165
 30
0
 11
215.85
 21
22.0165
 31
0
  0
LINE
  5
AEF
330
A02
100
AcDbEntity
  8
Sketch
100
AcDbLine
 10
215.85
 20
22.0165
 30
0
 11
215.85
 21
34.8171
 31
0
  0
LINE
  5
AF0
330
A02
100
AcDbEntity
  8
Sketch
100
AcDbLine
 10
251.566
 20
34.8171
 30
0
 11
267.167
 21
34.8171
 31
0
  0
LINE
  5
AF1
330
A02
100
AcDbEntity
  8
Sketch
100
AcDbLine
 10
267.167
 20
34.8171
 30
0
 11
267.167
 21
22.0165
 31
0
  0
LINE
  5
AF2
330
A02
100
AcDbEntity
  8
Sketch
100
AcDbLine
 10
267.167
 20
22.0165
 30
0
 11
251.566
 21
22.0165
 31
0
  0
LINE
  5
AF3
330
A02
100
AcDbEntity
  8
Sketch
100
AcDbLine
 10
251.566
 20
22.0165
 30
0
 11
251.566
 21
34.8171
 31
0
  0
LINE
  5
AF4
330
A02
100
AcDbEntity
  8
Sketch
100
AcDbLine
 10
236.444
 20
24.5438
 30
0
 11
239.111
 21
24.5438
 31
0
  0
LINE
  5
AF5
330
A02
100
AcDbEntity
  8
Sketch
100
AcDbLine
 10
239.111
 20
24.5438
 30
0
 11
239.111
 21
19.3322
 31
0
  0
LINE
  5
AF6
330
A02
100
AcDbEntity
  8
Sketch
100
AcDbLine
 10
239.111
 20
19.3322
 30
0
 11
236.444
 21
19.3322
 31
0
  0
LINE
  5
AF7
330
A02
100
AcDbEntity
  8
Sketch
100
AcDbLine
 10
236.444
 20
19.3322
 30
0
 11
236.444
 21
24.5438
 31
0
  0
LINE
  5
AF8
330
A02
100
AcDbEntity
  8
Sketch
100
AcDbLine
 10
279.624
 20
24.5438
 30
0
 11
282.291
 21
24.5438
 31
0
  0
LINE
  5
AF9
330
A02
100
AcDbEntity
  8
Sketch
100
AcDbLine
 10
282.291
 20
24.5438
 30
0
 11
282.291
 21
19.3322
 31
0
  0
LINE
  5
AFA
330
A02
100
AcDbEntity
  8
Sketch
100
AcDbLine
 10
282.291
 20
19.3322
 30
0
 11
279.624
 21
19.3322
 31
0
  0
LINE
  5
AFB
330
A02
100
AcDbEntity
  8
Sketch
100
AcDbLine
 10
279.624
 20
19.3322
 30
0
 11
279.624
 21
24.5438
 31
0
  0
LINE
  5
AFC
330
A02
100
AcDbEntity
  8
Sketch
100
AcDbLine
 10
6.29903
 20
15.7671
 30
0
 11
21.8998
 21
15.7671
 31
0
  0
LINE
  5
AFD
330
A02
100
AcDbEntity
  8
Sketch
100
AcDbLine
 10
21.8998
 20
15.7671
 30
0
 11
21.8998
 21
2.9665
 31
0
  0
LINE
  5
AFE
330
A02
100
AcDbEntity
  8
Sketch
100
AcDbLine
 10
21.8998
 20
2.9665
 30
0
 11
6.29903
 21
2.9665
 31
0
  0
LINE
  5
AFF
330
A02
100
AcDbEntity
  8
Sketch
100
AcDbLine
 10
6.29903
 20
2.9665
 30
0
 11
6.29903
 21
15.7671
 31
0
  0
LINE
  5
B00
330
A02
100
AcDbEntity
  8
Sketch
100
AcDbLine
 10
30.1115
 20
15.7671
 30
0
 11
45.7123
 21
15.7671
 31
0
  0
LINE
  5
B01
330
A02
100
AcDbEntity
  8
Sketch
100
AcDbLine
 10
45.7123
 20
15.7671
 30
0
 11
45.7123
 21
2.9665
 31
0
  0
LINE
  5
B02
330
A02
100
AcDbEntity
  8
Sketch
100
AcDbLine
 10
45.7123
 20
2.9665
 30
0
 11
30.1115
 21
2.9665
 31
0
  0
LINE
  5
B03
330
A02
100
AcDbEntity
  8
Sketch
100
AcDbLine
 10
30.1115
 20
2.9665
 30
0
 11
30.1115
 21
15.7671
 31
0
  0
LINE
  5
B04
330
A02
100
AcDbEntity
  8
Sketch
100
AcDbLine
 10
53.9227
 20
15.7671
 30
0
 11
69.5235
 21
15.7671
 31
0
  0
LINE
  5
B05
330
A02
100
AcDbEntity
  8
Sketch
100
AcDbLine
 10
69.5235
 20
15.7671
 30
0
 11
69.5235
 21
2.9665
 31
0
  0
LINE
  5
B06
330
A02
100
AcDbEntity
  8
Sketch
100
AcDbLine
 10
69.5235
 20
2.9665
 30
0
 11
53.9227
 21
2.9665
 31
0
  0
LINE
  5
B07
330
A02
100
AcDbEntity
  8
Sketch
100
AcDbLine
 10
53.9227
 20
2.9665
 30
0
 11
53.9227
 21
15.7671
 31
0
  0
LINE
  5
B08
330
A02
100
AcDbEntity
  8
Sketch
100
AcDbLine
 10
134.886
 20
15.7671
 30
0
 11
150.487
 21
15.7671
 31
0
  0
LINE
  5
B09
330
A02
100
AcDbEntity
  8
Sketch
100
AcDbLine
 10
150.487
 20
15.7671
 30
0
 11
150.487
 21
2.9665
 31
0
  0
LINE
  5
B0A
330
A02
100
AcDbEntity
  8
Sketch
100
AcDbLine
 10
150.487
 20
2.9665
 30
0
 11
134.886
 21
2.9665
 31
0
  0
LINE
  5
B0B
330
A02
100
AcDbEntity
  8
Sketch
100
AcDbLine
 10
134.886
 20
2.9665
 30
0
 11
134.886
 21
15.7671
 31
0
  0
LINE
  5
B0C
330
A02
100
AcDbEntity
  8
Sketch
100
AcDbLine
 10
215.847
 20
15.7671
 30
0
 11
231.448
 21
15.7671
 31
0
  0
LINE
  5
B0D
330
A02
100
AcDbEntity
  8
Sketch
100
AcDbLine
 10
231.448
 20
15.7671
 30
0
 11
231.448
 21
2.9665
 31
0
  0
LINE
  5
B0E
330
A02
100
AcDbEntity
  8
Sketch
100
AcDbLine
 10
231.448
 20
2.9665
 30
0
 11
215.847
 21
2.9665
 31
0
  0
LINE
  5
B0F
330
A02
100
AcDbEntity
  8
Sketch
100
AcDbLine
 10
215.847
 20
2.9665
 30
0
 11
215.847
 21
15.7671
 31
0
  0
LINE
  5
B10
330
A02
100
AcDbEntity
  8
Sketch
100
AcDbLine
 10
239.661
 20
15.7671
 30
0
 11
255.262
 21
15.7671
 31
0
  0
LINE
  5
B11
330
A02
100
AcDbEntity
  8
Sketch
100
AcDbLine
 10
255.262
 20
15.7671
 30
0
 11
255.262
 21
2.9665
 31
0
  0
LINE
  5
B12
330
A02
100
AcDbEntity
  8
Sketch
100
AcDbLine
 10
255.262
 20
2.9665
 30
0
 11
239.661
 21
2.9665
 31
0
  0
LINE
  5
B13
330
A02
100
AcDbEntity
  8
Sketch
100
AcDbLine
 10
239.661
 20
2.9665
 30
0
 11
239.661
 21
15.7671
 31
0
  0
LINE
  5
B14
330
A02
100
AcDbEntity
  8
Sketch
100
AcDbLine
 10
263.472
 20
15.7671
 30
0
 11
279.073
 21
15.7671
 31
0
  0
LINE
  5
B15
330
A02
100
AcDbEntity
  8
Sketch
100
AcDbLine
 10
279.073
 20
15.7671
 30
0
 11
279.073
 21
2.9665
 31
0
  0
LINE
  5
B16
330
A02
100
AcDbEntity
  8
Sketch
100
AcDbLine
 10
279.073
 20
2.9665
 30
0
 11
263.472
 21
2.9665
 31
0
  0
LINE
  5
B17
330
A02
100
AcDbEntity
  8
Sketch
100
AcDbLine
 10
263.472
 20
2.9665
 30
0
 11
263.472
 21
15.7671
 31
0
  0
LINE
  5
B18
330
A02
100
AcDbEntity
  8
Sketch
100
AcDbLine
 10
99.353
 20
5.49099
 30
0
 11
102.02
 21
5.49099
 31
0
  0
LINE
  5
B19
330
A02
100
AcDbEntity
  8
Sketch
100
AcDbLine
 10
102.02
 20
5.49099
 30
0
 11
102.02
 21
0.279394
 31
0
  0
LINE
  5
B1A
330
A02
100
AcDbEntity
  8
Sketch
100
AcDbLine
 10
102.02
 20
0.279394
 30
0
 11
99.353
 21
0.279394
 31
0
  0
LINE
  5
B1B
330
A02
100
AcDbEntity
  8
Sketch
100
AcDbLine
 10
99.353
 20
0.279394
 30
0
 11
99.353
 21
5.49099
 31
0
  0
LINE
  5
B1C
330
A02
100
AcDbEntity
  8
Sketch
100
AcDbLine
 10
183.353
 20
5.49099
 30
0
 11
186.02
 21
5.49099
 31
0
  0
LINE
  5
B1D
330
A02
100
AcDbEntity
  8
Sketch
100
AcDbLine
 10
186.02
 20
5.49099
 30
0
 11
186.02
 21
0.279394
 31
0
  0
LINE
  5
B1E
330
A02
100
AcDbEntity
  8
Sketch
100
AcDbLine
 10
186.02
 20
0.279394
 30
0
 11
183.353
 21
0.279394
 31
0
  0
LINE
  5
B1F
330
A02
100
AcDbEntity
  8
Sketch
100
AcDbLine
 10
183.353
 20
0.279394
 30
0
 11
183.353
 21
5.49099
 31
0
  0
LINE
  5
B20
330
A02
100
AcDbEntity
  8
Sketch
100
AcDbLine
 10
100.311
 20
10.4675
 30
0
 11
102.511
 21
10.4675
 31
0
  0
LINE
  5
B21
330
A02
100
AcDbEntity
  8
Sketch
100
AcDbLine
 10
102.511
 20
10.4675
 30
0
 11
102.511
 21
8.26749
 31
0
  0
LINE
  5
B22
330
A02
100
AcDbEntity
  8
Sketch
100
AcDbLine
 10
102.511
 20
8.26749
 30
0
 11
100.311
 21
8.26749
 31
0
  0
LINE
  5
B23
330
A02
100
AcDbEntity
  8
Sketch
100
AcDbLine
 10
100.311
 20
8.26749
 30
0
 11
100.311
 21
10.4675
 31
0
  0
LINE
  5
B24
330
A02
100
AcDbEntity
  8
Sketch
100
AcDbLine
 10
112.261
 20
10.4675
 30
0
 11
114.461
 21
10.4675
 31
0
  0
LINE
  5
B25
330
A02
100
AcDbEntity
  8
Sketch
100
AcDbLine
 10
114.461
 20
10.4675
 30
0
 11
114.461
 21
8.26749
 31
0
  0
LINE
  5
B26
330
A02
100
AcDbEntity
  8
Sketch
100
AcDbLine
 10
114.461
 20
8.26749
 30
0
 11
112.261
 21
8.26749
 31
0
  0
LINE
  5
B27
330
A02
100
AcDbEntity
  8
Sketch
100
AcDbLine
 10
112.261
 20
8.26749
 30
0
 11
112.261
 21
10.4675
 31
0
  0
LINE
  5
B28
330
A02
100
AcDbEntity
  8
Sketch
100
AcDbLine
 10
182.861
 20
10.4675
 30
0
 11
185.061
 21
10.4675
 31
0
  0
LINE
  5
B29
330
A02
100
AcDbEntity
  8
Sketch
100
AcDbLine
 10
185.061
 20
10.4675
 30
0
 11
185.061
 21
8.26749
 31
0
  0
LINE
  5
B2A
330
A02
100
AcDbEntity
  8
Sketch
100
AcDbLine
 10
185.061
 20
8.26749
 30
0
 11
182.861
 21
8.26749
 31
0
  0
LINE
  5
B2B
330
A02
100
AcDbEntity
  8
Sketch
100
AcDbLine
 10
182.861
 20
8.26749
 30
0
 11
182.861
 21
10.4675
 31
0
  0
LINE
  5
B2C
330
A02
100
AcDbEntity
  8
Sketch
100
AcDbLine
 10
170.911
 20
8.26749
 30
0
 11
173.111
 21
8.26749
 31
0
  0
LINE
  5
B2D
330
A02
100
AcDbEntity
  8
Sketch
100
AcDbLine
 10
173.111
 20
8.26749
 30
0
 11
173.111
 21
10.4675
 31
0
  0
LINE
  5
B2E
330
A02
100
AcDbEntity
  8
Sketch
100
AcDbLine
 10
173.111
 20
10.4675
 30
0
 11
170.911
 21
10.4675
 31
0
  0
LINE
  5
B2F
330
A02
100
AcDbEntity
  8
Sketch
100
AcDbLine
 10
170.911
 20
10.4675
 30
0
 11
170.911
 21
8.26749
 31
0
  0
CIRCLE
  5
B30
330
A02
100
AcDbEntity
  8
Sketch
100
AcDbCircle
 10
107.386
 20
9.36749
 40
3.125
  0
CIRCLE
  5
B31
330
A02
100
AcDbEntity
  8
Sketch
100
AcDbCircle
 10
177.986
 20
9.36749
 40
3.125
  0
ENDSEC
  0
SECTION
  2
OBJECTS
  0
DICTIONARY
  5
F000
330
0
100
AcDbDictionary
  3
ACAD_GROUP
350
F001
  0
DICTIONARY
  5
F001
330
F000
100
AcDbDictionary
  0
ENDSEC
  0
EOF