999
FreeCAD v0.20 29603 (Git)
  0
SECTION
  2
HEADER
  9
$ACADVER
  1
AC1014
  9
$ACADMAINTVER
 70
     9
  9
$DWGCODEPAGE
  3
ANSI_1252
  9
$TEXTSTYLE
  7
STANDARD
  9
$DIMSTYLE
  2
STANDARD
  9
$DIMTXSTY
  7
STANDARD
  9
$CMLSTYLE
  2
STANDARD
  9
$LUNITS
 70
2
  9
$INSUNITS
 70
4
  9
$PEXTMAX
 10
50
 20
50
 30
50
  9
$PEXTMIN
 10
0
 20
0
 30
0
  9
$HANDSEED
  5
FFFF
  0
ENDSEC
  0
SECTION
  2
CLASSES
  0
CLASS
  1
ACDBDICTIONARYWDFLT
  2
AcDbDictionaryWithDefault
  3
ObjectDBX Classes
 90
        0
280
     0
281
     0
  0
CLASS
  1
XRECORD
  2
AcDbXrecord
  3
ObjectDBX Classes
 90
        0
280
     0
281
     0
  0
CLASS
  1
LWPOLYLINE
  2
AcDbPolyline
  3
ObjectDBX Classes
 90
        0
280
     0
281
     1
  0
ENDSEC
  0
SECTION
  2
TABLES
  0
TABLE
  2
VPORT
  5
20
330
0
100
AcDbSymbolTable
 70
     1
  0
VPORT
  5
21
330
20
100
AcDbSymbolTableRecord
100
AcDbViewportTableRecord
  2
*ACTIVE
 70
     0
  0
ENDTAB
  0
TABLE
  2
LTYPE
  5
22
330
0
100
AcDbSymbolTable
 70
     1
  0
LTYPE
  5
23
330
21
100
AcDbSymbolTableRecord
100
AcDbLinetypeTableRecord
  2
BYBLOCK
 70
     0
  3

 72
    65
 73
     0
 40
0.0
  0
LTYPE
  5
24
330
21
100
AcDbSymbolTableRecord
100
AcDbLinetypeTableRecord
  2
BYLAYER
 70
     0
  3

 72
    65
 73
     0
 40
0.0
  0
LTYPE
  5
25
330
21
100
AcDbSymbolTableRecord
100
AcDbLinetypeTableRecord
  2
CONTINUOUS
 70
     0
  3
Solid line
 72
    65
 73
     0
 40
0.0
  0
ENDTAB
  0
TABLE
  2
LAYER
  5
B72
330
0
100
AcDbSymbolTable
 70
3
  0
LAYER
  5
B73
330
B72
100
AcDbSymbolTableRecord
100
AcDbLayerTableRecord
  2
0
 70
   0
 62
   7
  6
CONTINUOUS
  0
LAYER
  5
B74
330
B72
100
AcDbSymbolTableRecord
100
AcDbLayerTableRecord
  2
none
 70
    0
 62
    7
  6
CONTINUOUS
  0
LAYER
  5
B75
330
B72
100
AcDbSymbolTableRecord
100
AcDbLayerTableRecord
  2
Sketch
 70
    0
 62
    7
  6
CONTINUOUS
  0
ENDTAB
  0
TABLE
  2
STYLE
  5
70
330
0
100
AcDbSymbolTable
 70
     2
  0
STYLE
  5
71
330
70
100
AcDbSymbolTableRecord
100
AcDbTextStyleTableRecord
  2
STANDARD
 70
     0
 40
0.0
 41
1.0
 50
0.0
 71
     0
 42
2.5
  3
arial.ttf
  4

  0
STYLE
  5
72
330
70
100
AcDbSymbolTableRecord
100
AcDbTextStyleTableRecord
  2
ANNOTATIVE
 70
     0
 40
0.0
 41
1.0
 50
0.0
 71
     0
 42
2.5
  3
arial.ttf
  4

  0
ENDTAB
  0
TABLE
  2
VIEW
  5
73
330
0
100
AcDbSymbolTable
 70
     0
  0
ENDTAB
  0
TABLE
  2
UCS
  5
74
330
0
100
AcDbSymbolTable
 70
     0
  0
ENDTAB
  0
TABLE
  2
APPID
  5
75
330
0
100
AcDbSymbolTable
 70
     2
  0
APPID
  5
76
330
75
100
AcDbSymbolTableRecord
100
AcDbRegAppTableRecord
  2
ACAD
 70
     0
  0
APPID
  5
77
330
75
100
AcDbSymbolTableRecord
100
AcDbRegAppTableRecord
  2
ACADANNOTATIVE
 70
     0
  0
ENDTAB
  0
TABLE
  2
DIMSTYLE
  5
78
330
0
100
AcDbSymbolTable
 70
     2
  0
DIMSTYLE
105
79
330
78
100
AcDbSymbolTableRecord
100
AcDbDimStyleTableRecord
  2
STANDARD
 70
     0
  3

  4

  5

  6

  7

 40
0.0
 41
2.5
 42
0.625
 43
3.75
 44
1.25
 45
0.0
 46
0.0
 47
0.0
 48
0.0
140
2.5
141
2.5
142
0.0
143
0.03937007874016
144
1.0
145
0.0
146
1.0
147
0.625
 71
     0
 72
     0
 73
     0
 74
     0
 75
     0
 76
     0
 77
     1
 78
     8
170
     0
171
     3
172
     1
173
     0
174
     0
175
     0
176
     0
177
     0
178
     0
270
     2
271
     2
272
     2
273
     2
274
     3
340
71
275
     0
280
     0
281
     0
282
     0
283
     0
284
     8
285
     0
286
     0
287
     3
288
     0
  0
ENDTAB
  0
TABLE
  2
BLOCK_RECORD
  5
A01
330
0
100
AcDbSymbolTable
  70
5
  0
BLOCK_RECORD
  5
A02
330
A01
100
AcDbSymbolTableRecord
100
AcDbBlockTableRecord
  2
*MODEL_SPACE
  0
BLOCK_RECORD
  5
A03
330
A01
100
AcDbSymbolTableRecord
100
AcDbBlockTableRecord
  2
*PAPER_SPACE
  0
ENDTAB
  0
ENDSEC
  0
SECTION
  2
BLOCKS
  0
BLOCK
  5
A04
330
A02
100
AcDbEntity
  8
0
100
AcDbBlockBegin
  2
*MODEL_SPACE
 70
   0
 10
0
 20
0
 30
0
  3
*MODEL_SPACE
  1
 
  0
ENDBLK
  5
A05
330
A02
100
AcDbEntity
  8
0
100
AcDbBlockEnd
  0
BLOCK
  5
A06
330
A03
100
AcDbEntity
 67
1
  8
0
100
AcDbBlockBegin
  2
*PAPER_SPACE
 70
   0
 10
0
 20
0
 30
0
  3
*PAPER_SPACE
  1
 
  0
ENDBLK
  5
A07
330
A03
100
AcDbEntity
 67
    1
  8
0
100
AcDbBlockEnd
  0
ENDSEC
  0
SECTION
  2
ENTITIES
  0
LINE
  5
A08
330
A02
100
AcDbEntity
  8
Sketch
100
AcDbLine
 10
4.09986
 20
94.4537
 30
0
 11
19.7006
 21
94.4537
 31
0
  0
LINE
  5
A09
330
A02
100
AcDbEntity
  8
Sketch
100
AcDbLine
 10
19.7006
 20
94.4537
 30
0
 11
19.7006
 21
81.6531
 31
0
  0
LINE
  5
A0A
330
A02
100
AcDbEntity
  8
Sketch
100
AcDbLine
 10
19.7006
 20
81.6531
 30
0
 11
4.09986
 21
81.6531
 31
0
  0
LINE
  5
A0B
330
A02
100
AcDbEntity
  8
Sketch
100
AcDbLine
 10
4.09986
 20
81.6531
 30
0
 11
4.09986
 21
94.4537
 31
0
  0
LINE
  5
A0C
330
A02
100
AcDbEntity
  8
Sketch
100
AcDbLine
 10
23.1498
 20
94.4537
 30
0
 11
38.7506
 21
94.4537
 31
0
  0
LINE
  5
A0D
330
A02
100
AcDbEntity
  8
Sketch
100
AcDbLine
 10
38.7506
 20
94.4537
 30
0
 11
38.7506
 21
81.6531
 31
0
  0
LINE
  5
A0E
330
A02
100
AcDbEntity
  8
Sketch
100
AcDbLine
 10
38.7506
 20
81.6531
 30
0
 11
23.1498
 21
81.6531
 31
0
  0
LINE
  5
A0F
330
A02
100
AcDbEntity
  8
Sketch
100
AcDbLine
 10
23.1498
 20
81.6531
 30
0
 11
23.1498
 21
94.4537
 31
0
  0
LINE
  5
A10
330
A02
100
AcDbEntity
  8
Sketch
100
AcDbLine
 10
42.1998
 20
94.4537
 30
0
 11
57.8006
 21
94.4537
 31
0
  0
LINE
  5
A11
330
A02
100
AcDbEntity
  8
Sketch
100
AcDbLine
 10
57.8006
 20
94.4537
 30
0
 11
57.8006
 21
81.6531
 31
0
  0
LINE
  5
A12
330
A02
100
AcDbEntity
  8
Sketch
100
AcDbLine
 10
57.8006
 20
81.6531
 30
0
 11
42.1998
 21
81.6531
 31
0
  0
LINE
  5
A13
330
A02
100
AcDbEntity
  8
Sketch
100
AcDbLine
 10
42.1998
 20
81.6531
 30
0
 11
42.1998
 21
94.4537
 31
0
  0
LINE
  5
A14
330
A02
100
AcDbEntity
  8
Sketch
100
AcDbLine
 10
61.2498
 20
94.4537
 30
0
 11
76.8506
 21
94.4537
 31
0
  0
LINE
  5
A15
330
A02
100
AcDbEntity
  8
Sketch
100
AcDbLine
 10
76.8506
 20
94.4537
 30
0
 11
76.8506
 21
81.6531
 31
0
  0
LINE
  5
A16
330
A02
100
AcDbEntity
  8
Sketch
100
AcDbLine
 10
76.8506
 20
81.6531
 30
0
 11
61.2498
 21
81.6531
 31
0
  0
LINE
  5
A17
330
A02
100
AcDbEntity
  8
Sketch
100
AcDbLine
 10
61.2498
 20
81.6531
 30
0
 11
61.2498
 21
94.4537
 31
0
  0
LINE
  5
A18
330
A02
100
AcDbEntity
  8
Sketch
100
AcDbLine
 10
80.2998
 20
94.4537
 30
0
 11
95.9006
 21
94.4537
 31
0
  0
LINE
  5
A19
330
A02
100
AcDbEntity
  8
Sketch
100
AcDbLine
 10
95.9006
 20
94.4537
 30
0
 11
95.9006
 21
81.6531
 31
0
  0
LINE
  5
A1A
330
A02
100
AcDbEntity
  8
Sketch
100
AcDbLine
 10
95.9006
 20
81.6531
 30
0
 11
80.2998
 21
81.6531
 31
0
  0
LINE
  5
A1B
330
A02
100
AcDbEntity
  8
Sketch
100
AcDbLine
 10
80.2998
 20
81.6531
 30
0
 11
80.2998
 21
94.4537
 31
0
  0
LINE
  5
A1C
330
A02
100
AcDbEntity
  8
Sketch
100
AcDbLine
 10
99.3498
 20
94.4537
 30
0
 11
114.951
 21
94.4537
 31
0
  0
LINE
  5
A1D
330
A02
100
AcDbEntity
  8
Sketch
100
AcDbLine
 10
114.951
 20
94.4537
 30
0
 11
114.951
 21
81.6531
 31
0
  0
LINE
  5
A1E
330
A02
100
AcDbEntity
  8
Sketch
100
AcDbLine
 10
114.951
 20
81.6531
 30
0
 11
99.3498
 21
81.6531
 31
0
  0
LINE
  5
A1F
330
A02
100
AcDbEntity
  8
Sketch
100
AcDbLine
 10
99.3498
 20
81.6531
 30
0
 11
99.3498
 21
94.4537
 31
0
  0
LINE
  5
A20
330
A02
100
AcDbEntity
  8
Sketch
100
AcDbLine
 10
118.4
 20
94.4537
 30
0
 11
134.001
 21
94.4537
 31
0
  0
LINE
  5
A21
330
A02
100
AcDbEntity
  8
Sketch
100
AcDbLine
 10
134.001
 20
94.4537
 30
0
 11
134.001
 21
81.6531
 31
0
  0
LINE
  5
A22
330
A02
100
AcDbEntity
  8
Sketch
100
AcDbLine
 10
134.001
 20
81.6531
 30
0
 11
118.4
 21
81.6531
 31
0
  0
LINE
  5
A23
330
A02
100
AcDbEntity
  8
Sketch
100
AcDbLine
 10
118.4
 20
81.6531
 30
0
 11
118.4
 21
94.4537
 31
0
  0
LINE
  5
A24
330
A02
100
AcDbEntity
  8
Sketch
100
AcDbLine
 10
137.45
 20
94.4537
 30
0
 11
153.05
 21
94.4537
 31
0
  0
LINE
  5
A25
330
A02
100
AcDbEntity
  8
Sketch
100
AcDbLine
 10
153.05
 20
94.4537
 30
0
 11
153.05
 21
81.6531
 31
0
  0
LINE
  5
A26
330
A02
100
AcDbEntity
  8
Sketch
100
AcDbLine
 10
153.05
 20
81.6531
 30
0
 11
137.45
 21
81.6531
 31
0
  0
LINE
  5
A27
330
A02
100
AcDbEntity
  8
Sketch
100
AcDbLine
 10
137.45
 20
81.6531
 30
0
 11
137.45
 21
94.4537
 31
0
  0
LINE
  5
A28
330
A02
100
AcDbEntity
  8
Sketch
100
AcDbLine
 10
156.5
 20
94.4537
 30
0
 11
172.1
 21
94.4537
 31
0
  0
LINE
  5
A29
330
A02
100
AcDbEntity
  8
Sketch
100
AcDbLine
 10
172.1
 20
94.4537
 30
0
 11
172.1
 21
81.6531
 31
0
  0
LINE
  5
A2A
330
A02
100
AcDbEntity
  8
Sketch
100
AcDbLine
 10
172.1
 20
81.6531
 30
0
 11
156.5
 21
81.6531
 31
0
  0
LINE
  5
A2B
330
A02
100
AcDbEntity
  8
Sketch
100
AcDbLine
 10
156.5
 20
81.6531
 30
0
 11
156.5
 21
94.4537
 31
0
  0
LINE
  5
A2C
330
A02
100
AcDbEntity
  8
Sketch
100
AcDbLine
 10
175.55
 20
94.4537
 30
0
 11
191.15
 21
94.4537
 31
0
  0
LINE
  5
A2D
330
A02
100
AcDbEntity
  8
Sketch
100
AcDbLine
 10
191.15
 20
94.4537
 30
0
 11
191.15
 21
81.6531
 31
0
  0
LINE
  5
A2E
330
A02
100
AcDbEntity
  8
Sketch
100
AcDbLine
 10
191.15
 20
81.6531
 30
0
 11
175.55
 21
81.6531
 31
0
  0
LINE
  5
A2F
330
A02
100
AcDbEntity
  8
Sketch
100
AcDbLine
 10
175.55
 20
81.6531
 30
0
 11
175.55
 21
94.4537
 31
0
  0
LINE
  5
A30
330
A02
100
AcDbEntity
  8
Sketch
100
AcDbLine
 10
194.6
 20
94.4537
 30
0
 11
210.2
 21
94.4537
 31
0
  0
LINE
  5
A31
330
A02
100
AcDbEntity
  8
Sketch
100
AcDbLine
 10
210.2
 20
94.4537
 30
0
 11
210.2
 21
81.6531
 31
0
  0
LINE
  5
A32
330
A02
100
AcDbEntity
  8
Sketch
100
AcDbLine
 10
210.2
 20
81.6531
 30
0
 11
194.6
 21
81.6531
 31
0
  0
LINE
  5
A33
330
A02
100
AcDbEntity
  8
Sketch
100
AcDbLine
 10
194.6
 20
81.6531
 30
0
 11
194.6
 21
94.4537
 31
0
  0
LINE
  5
A34
330
A02
100
AcDbEntity
  8
Sketch
100
AcDbLine
 10
213.65
 20
94.4537
 30
0
 11
229.25
 21
94.4537
 31
0
  0
LINE
  5
A35
330
A02
100
AcDbEntity
  8
Sketch
100
AcDbLine
 10
229.25
 20
94.4537
 30
0
 11
229.25
 21
81.6531
 31
0
  0
LINE
  5
A36
330
A02
100
AcDbEntity
  8
Sketch
100
AcDbLine
 10
229.25
 20
81.6531
 30
0
 11
213.65
 21
81.6531
 31
0
  0
LINE
  5
A37
330
A02
100
AcDbEntity
  8
Sketch
100
AcDbLine
 10
213.65
 20
81.6531
 30
0
 11
213.65
 21
94.4537
 31
0
  0
LINE
  5
A38
330
A02
100
AcDbEntity
  8
Sketch
100
AcDbLine
 10
232.7
 20
94.4537
 30
0
 11
248.3
 21
94.4537
 31
0
  0
LINE
  5
A39
330
A02
100
AcDbEntity
  8
Sketch
100
AcDbLine
 10
248.3
 20
94.4537
 30
0
 11
248.3
 21
81.6531
 31
0
  0
LINE
  5
A3A
330
A02
100
AcDbEntity
  8
Sketch
100
AcDbLine
 10
248.3
 20
81.6531
 30
0
 11
232.7
 21
81.6531
 31
0
  0
LINE
  5
A3B
330
A02
100
AcDbEntity
  8
Sketch
100
AcDbLine
 10
232.7
 20
81.6531
 30
0
 11
232.7
 21
94.4537
 31
0
  0
LINE
  5
A3C
330
A02
100
AcDbEntity
  8
Sketch
100
AcDbLine
 10
261.275
 20
94.4537
 30
0
 11
276.875
 21
94.4537
 31
0
  0
LINE
  5
A3D
330
A02
100
AcDbEntity
  8
Sketch
100
AcDbLine
 10
276.875
 20
94.4537
 30
0
 11
276.875
 21
81.6531
 31
0
  0
LINE
  5
A3E
330
A02
100
AcDbEntity
  8
Sketch
100
AcDbLine
 10
276.875
 20
81.6531
 30
0
 11
261.275
 21
81.6531
 31
0
  0
LINE
  5
A3F
330
A02
100
AcDbEntity
  8
Sketch
100
AcDbLine
 10
261.275
 20
81.6531
 30
0
 11
261.275
 21
94.4537
 31
0
  0
LINE
  5
A40
330
A02
100
AcDbEntity
  8
Sketch
100
AcDbLine
 10
253.646
 20
84.1804
 30
0
 11
256.313
 21
84.1804
 31
0
  0
LINE
  5
A41
330
A02
100
AcDbEntity
  8
Sketch
100
AcDbLine
 10
256.313
 20
84.1804
 30
0
 11
256.313
 21
78.9688
 31
0
  0
LINE
  5
A42
330
A02
100
AcDbEntity
  8
Sketch
100
AcDbLine
 10
256.313
 20
78.9688
 30
0
 11
253.646
 21
78.9688
 31
0
  0
LINE
  5
A43
330
A02
100
AcDbEntity
  8
Sketch
100
AcDbLine
 10
253.646
 20
78.9688
 30
0
 11
253.646
 21
84.1804
 31
0
  0
LINE
  5
A44
330
A02
100
AcDbEntity
  8
Sketch
100
AcDbLine
 10
281.838
 20
84.1804
 30
0
 11
284.505
 21
84.1804
 31
0
  0
LINE
  5
A45
330
A02
100
AcDbEntity
  8
Sketch
100
AcDbLine
 10
284.505
 20
84.1804
 30
0
 11
284.505
 21
78.9688
 31
0
  0
LINE
  5
A46
330
A02
100
AcDbEntity
  8
Sketch
100
AcDbLine
 10
284.505
 20
78.9688
 30
0
 11
281.838
 21
78.9688
 31
0
  0
LINE
  5
A47
330
A02
100
AcDbEntity
  8
Sketch
100
AcDbLine
 10
281.838
 20
78.9688
 30
0
 11
281.838
 21
84.1804
 31
0
  0
LINE
  5
A48
330
A02
100
AcDbEntity
  8
Sketch
100
AcDbLine
 10
8.86374
 20
75.4037
 30
0
 11
24.4645
 21
75.4037
 31
0
  0
LINE
  5
A49
330
A02
100
AcDbEntity
  8
Sketch
100
AcDbLine
 10
24.4645
 20
75.4037
 30
0
 11
24.4645
 21
62.6031
 31
0
  0
LINE
  5
A4A
330
A02
100
AcDbEntity
  8
Sketch
100
AcDbLine
 10
24.4645
 20
62.6031
 30
0
 11
8.86374
 21
62.6031
 31
0
  0
LINE
  5
A4B
330
A02
100
AcDbEntity
  8
Sketch
100
AcDbLine
 10
8.86374
 20
62.6031
 30
0
 11
8.86374
 21
75.4037
 31
0
  0
LINE
  5
A4C
330
A02
100
AcDbEntity
  8
Sketch
100
AcDbLine
 10
32.6748
 20
75.4037
 30
0
 11
48.2756
 21
75.4037
 31
0
  0
LINE
  5
A4D
330
A02
100
AcDbEntity
  8
Sketch
100
AcDbLine
 10
48.2756
 20
75.4037
 30
0
 11
48.2756
 21
62.6031
 31
0
  0
LINE
  5
A4E
330
A02
100
AcDbEntity
  8
Sketch
100
AcDbLine
 10
48.2756
 20
62.6031
 30
0
 11
32.6748
 21
62.6031
 31
0
  0
LINE
  5
A4F
330
A02
100
AcDbEntity
  8
Sketch
100
AcDbLine
 10
32.6748
 20
62.6031
 30
0
 11
32.6748
 21
75.4037
 31
0
  0
LINE
  5
A50
330
A02
100
AcDbEntity
  8
Sketch
100
AcDbLine
 10
51.7248
 20
75.4037
 30
0
 11
67.3256
 21
75.4037
 31
0
  0
LINE
  5
A51
330
A02
100
AcDbEntity
  8
Sketch
100
AcDbLine
 10
67.3256
 20
75.4037
 30
0
 11
67.3256
 21
62.6031
 31
0
  0
LINE
  5
A52
330
A02
100
AcDbEntity
  8
Sketch
100
AcDbLine
 10
67.3256
 20
62.6031
 30
0
 11
51.7248
 21
62.6031
 31
0
  0
LINE
  5
A53
330
A02
100
AcDbEntity
  8
Sketch
100
AcDbLine
 10
51.7248
 20
62.6031
 30
0
 11
51.7248
 21
75.4037
 31
0
  0
LINE
  5
A54
330
A02
100
AcDbEntity
  8
Sketch
100
AcDbLine
 10
70.7748
 20
75.4037
 30
0
 11
86.3756
 21
75.4037
 31
0
  0
LINE
  5
A55
330
A02
100
AcDbEntity
  8
Sketch
100
AcDbLine
 10
86.3756
 20
75.4037
 30
0
 11
86.3756
 21
62.6031
 31
0
  0
LINE
  5
A56
330
A02
100
AcDbEntity
  8
Sketch
100
AcDbLine
 10
86.3756
 20
62.6031
 30
0
 11
70.7748
 21
62.6031
 31
0
  0
LINE
  5
A57
330
A02
100
AcDbEntity
  8
Sketch
100
AcDbLine
 10
70.7748
 20
62.6031
 30
0
 11
70.7748
 21
75.4037
 31
0
  0
LINE
  5
A58
330
A02
100
AcDbEntity
  8
Sketch
100
AcDbLine
 10
89.8248
 20
75.4037
 30
0
 11
105.426
 21
75.4037
 31
0
  0
LINE
  5
A59
330
A02
100
AcDbEntity
  8
Sketch
100
AcDbLine
 10
105.426
 20
75.4037
 30
0
 11
105.426
 21
62.6031
 31
0
  0
LINE
  5
A5A
330
A02
100
AcDbEntity
  8
Sketch
100
AcDbLine
 10
105.426
 20
62.6031
 30
0
 11
89.8248
 21
62.6031
 31
0
  0
LINE
  5
A5B
330
A02
100
AcDbEntity
  8
Sketch
100
AcDbLine
 10
89.8248
 20
62.6031
 30
0
 11
89.8248
 21
75.4037
 31
0
  0
LINE
  5
A5C
330
A02
100
AcDbEntity
  8
Sketch
100
AcDbLine
 10
108.875
 20
75.4037
 30
0
 11
124.476
 21
75.4037
 31
0
  0
LINE
  5
A5D
330
A02
100
AcDbEntity
  8
Sketch
100
AcDbLine
 10
124.476
 20
75.4037
 30
0
 11
124.476
 21
62.6031
 31
0
  0
LINE
  5
A5E
330
A02
100
AcDbEntity
  8
Sketch
100
AcDbLine
 10
124.476
 20
62.6031
 30
0
 11
108.875
 21
62.6031
 31
0
  0
LINE
  5
A5F
330
A02
100
AcDbEntity
  8
Sketch
100
AcDbLine
 10
108.875
 20
62.6031
 30
0
 11
108.875
 21
75.4037
 31
0
  0
LINE
  5
A60
330
A02
100
AcDbEntity
  8
Sketch
100
AcDbLine
 10
127.925
 20
75.4037
 30
0
 11
143.526
 21
75.4037
 31
0
  0
LINE
  5
A61
330
A02
100
AcDbEntity
  8
Sketch
100
AcDbLine
 10
143.526
 20
75.4037
 30
0
 11
143.526
 21
62.6031
 31
0
  0
LINE
  5
A62
330
A02
100
AcDbEntity
  8
Sketch
100
AcDbLine
 10
143.526
 20
62.6031
 30
0
 11
127.925
 21
62.6031
 31
0
  0
LINE
  5
A63
330
A02
100
AcDbEntity
  8
Sketch
100
AcDbLine
 10
127.925
 20
62.6031
 30
0
 11
127.925
 21
75.4037
 31
0
  0
LINE
  5
A64
330
A02
100
AcDbEntity
  8
Sketch
100
AcDbLine
 10
146.975
 20
75.4037
 30
0
 11
162.576
 21
75.4037
 31
0
  0
LINE
  5
A65
330
A02
100
AcDbEntity
  8
Sketch
100
AcDbLine
 10
162.576
 20
75.4037
 30
0
 11
162.576
 21
62.6031
 31
0
  0
LINE
  5
A66
330
A02
100
AcDbEntity
  8
Sketch
100
AcDbLine
 10
162.576
 20
62.6031
 30
0
 11
146.975
 21
62.6031
 31
0
  0
LINE
  5
A67
330
A02
100
AcDbEntity
  8
Sketch
100
AcDbLine
 10
146.975
 20
62.6031
 30
0
 11
146.975
 21
75.4037
 31
0
  0
LINE
  5
A68
330
A02
100
AcDbEntity
  8
Sketch
100
AcDbLine
 10
166.025
 20
75.4037
 30
0
 11
181.625
 21
75.4037
 31
0
  0
LINE
  5
A69
330
A02
100
AcDbEntity
  8
Sketch
100
AcDbLine
 10
181.625
 20
75.4037
 30
0
 11
181.625
 21
62.6031
 31
0
  0
LINE
  5
A6A
330
A02
100
AcDbEntity
  8
Sketch
100
AcDbLine
 10
181.625
 20
62.6031
 30
0
 11
166.025
 21
62.6031
 31
0
  0
LINE
  5
A6B
330
A02
100
AcDbEntity
  8
Sketch
100
AcDbLine
 10
166.025
 20
62.6031
 30
0
 11
166.025
 21
75.4037
 31
0
  0
LINE
  5
A6C
330
A02
100
AcDbEntity
  8
Sketch
100
AcDbLine
 10
185.075
 20
75.4037
 30
0
 11
200.675
 21
75.4037
 31
0
  0
LINE
  5
A6D
330
A02
100
AcDbEntity
  8
Sketch
100
AcDbLine
 10
200.675
 20
75.4037
 30
0
 11
200.675
 21
62.6031
 31
0
  0
LINE
  5
A6E
330
A02
100
AcDbEntity
  8
Sketch
100
AcDbLine
 10
200.675
 20
62.6031
 30
0
 11
185.075
 21
62.6031
 31
0
  0
LINE
  5
A6F
330
A02
100
AcDbEntity
  8
Sketch
100
AcDbLine
 10
185.075
 20
62.6031
 30
0
 11
185.075
 21
75.4037
 31
0
  0
LINE
  5
A70
330
A02
100
AcDbEntity
  8
Sketch
100
AcDbLine
 10
204.125
 20
75.4037
 30
0
 11
219.725
 21
75.4037
 31
0
  0
LINE
  5
A71
330
A02
100
AcDbEntity
  8
Sketch
100
AcDbLine
 10
219.725
 20
75.4037
 30
0
 11
219.725
 21
62.6031
 31
0
  0
LINE
  5
A72
330
A02
100
AcDbEntity
  8
Sketch
100
AcDbLine
 10
219.725
 20
62.6031
 30
0
 11
204.125
 21
62.6031
 31
0
  0
LINE
  5
A73
330
A02
100
AcDbEntity
  8
Sketch
100
AcDbLine
 10
204.125
 20
62.6031
 30
0
 11
204.125
 21
75.4037
 31
0
  0
LINE
  5
A74
330
A02
100
AcDbEntity
  8
Sketch
100
AcDbLine
 10
223.175
 20
75.4037
 30
0
 11
238.775
 21
75.4037
 31
0
  0
LINE
  5
A75
330
A02
100
AcDbEntity
  8
Sketch
100
AcDbLine
 10
238.775
 20
75.4037
 30
0
 11
238.775
 21
62.6031
 31
0
  0
LINE
  5
A76
330
A02
100
AcDbEntity
  8
Sketch
100
AcDbLine
 10
238.775
 20
62.6031
 30
0
 11
223.175
 21
62.6031
 31
0
  0
LINE
  5
A77
330
A02
100
AcDbEntity
  8
Sketch
100
AcDbLine
 10
223.175
 20
62.6031
 30
0
 11
223.175
 21
75.4037
 31
0
  0
LINE
  5
A78
330
A02
100
AcDbEntity
  8
Sketch
100
AcDbLine
 10
242.225
 20
75.4037
 30
0
 11
257.825
 21
75.4037
 31
0
  0
LINE
  5
A79
330
A02
100
AcDbEntity
  8
Sketch
100
AcDbLine
 10
257.825
 20
75.4037
 30
0
 11
257.825
 21
62.6031
 31
0
  0
LINE
  5
A7A
330
A02
100
AcDbEntity
  8
Sketch
100
AcDbLine
 10
257.825
 20
62.6031
 30
0
 11
242.225
 21
62.6031
 31
0
  0
LINE
  5
A7B
330
A02
100
AcDbEntity
  8
Sketch
100
AcDbLine
 10
242.225
 20
62.6031
 30
0
 11
242.225
 21
75.4037
 31
0
  0
LINE
  5
A7C
330
A02
100
AcDbEntity
  8
Sketch
100
AcDbLine
 10
267.571
 20
67.2774
 30
0
 11
280.371
 21
67.2774
 31
0
  0
LINE
  5
A7D
330
A02
100
AcDbEntity
  8
Sketch
100
AcDbLine
 10
280.371
 20
67.2774
 30
0
 11
280.371
 21
51.6766
 31
0
  0
LINE
  5
A7E
330
A02
100
AcDbEntity
  8
Sketch
100
AcDbLine
 10
280.371
 20
51.6766
 30
0
 11
267.571
 21
51.6766
 31
0
  0
LINE
  5
A7F
330
A02
100
AcDbEntity
  8
Sketch
100
AcDbLine
 10
267.571
 20
51.6766
 30
0
 11
267.571
 21
67.2774
 31
0
  0
LINE
  5
A80
330
A02
100
AcDbEntity
  8
Sketch
100
AcDbLine
 10
277.839
 20
74.9076
 30
0
 11
283.05
 21
74.9076
 31
0
  0
LINE
  5
A81
330
A02
100
AcDbEntity
  8
Sketch
100
AcDbLine
 10
283.05
 20
74.9076
 30
0
 11
283.05
 21
72.2406
 31
0
  0
LINE
  5
A82
330
A02
100
AcDbEntity
  8
Sketch
100
AcDbLine
 10
283.05
 20
72.2406
 30
0
 11
277.839
 21
72.2406
 31
0
  0
LINE
  5
A83
330
A02
100
AcDbEntity
  8
Sketch
100
AcDbLine
 10
277.839
 20
72.2406
 30
0
 11
277.839
 21
74.9076
 31
0
  0
LINE
  5
A84
330
A02
100
AcDbEntity
  8
Sketch
100
AcDbLine
 10
277.839
 20
46.7157
 30
0
 11
283.05
 21
46.7157
 31
0
  0
LINE
  5
A85
330
A02
100
AcDbEntity
  8
Sketch
100
AcDbLine
 10
283.05
 20
46.7157
 30
0
 11
283.05
 21
44.0487
 31
0
  0
LINE
  5
A86
330
A02
100
AcDbEntity
  8
Sketch
100
AcDbLine
 10
283.05
 20
44.0487
 30
0
 11
277.839
 21
44.0487
 31
0
  0
LINE
  5
A87
330
A02
100
AcDbEntity
  8
Sketch
100
AcDbLine
 10
277.839
 20
44.0487
 30
0
 11
277.839
 21
46.7157
 31
0
  0
LINE
  5
A88
330
A02
100
AcDbEntity
  8
Sketch
100
AcDbLine
 10
8.86374
 20
56.3537
 30
0
 11
24.4645
 21
56.3537
 31
0
  0
LINE
  5
A89
330
A02
100
AcDbEntity
  8
Sketch
100
AcDbLine
 10
24.4645
 20
56.3537
 30
0
 11
24.4645
 21
43.5531
 31
0
  0
LINE
  5
A8A
330
A02
100
AcDbEntity
  8
Sketch
100
AcDbLine
 10
24.4645
 20
43.5531
 30
0
 11
8.86374
 21
43.5531
 31
0
  0
LINE
  5
A8B
330
A02
100
AcDbEntity
  8
Sketch
100
AcDbLine
 10
8.86374
 20
43.5531
 30
0
 11
8.86374
 21
56.3537
 31
0
  0
LINE
  5
A8C
330
A02
100
AcDbEntity
  8
Sketch
100
AcDbLine
 10
37.4387
 20
56.3537
 30
0
 11
53.0395
 21
56.3537
 31
0
  0
LINE
  5
A8D
330
A02
100
AcDbEntity
  8
Sketch
100
AcDbLine
 10
53.0395
 20
56.3537
 30
0
 11
53.0395
 21
43.5531
 31
0
  0
LINE
  5
A8E
330
A02
100
AcDbEntity
  8
Sketch
100
AcDbLine
 10
53.0395
 20
43.5531
 30
0
 11
37.4387
 21
43.5531
 31
0
  0
LINE
  5
A8F
330
A02
100
AcDbEntity
  8
Sketch
100
AcDbLine
 10
37.4387
 20
43.5531
 30
0
 11
37.4387
 21
56.3537
 31
0
  0
LINE
  5
A90
330
A02
100
AcDbEntity
  8
Sketch
100
AcDbLine
 10
56.4887
 20
56.3537
 30
0
 11
72.0895
 21
56.3537
 31
0
  0
LINE
  5
A91
330
A02
100
AcDbEntity
  8
Sketch
100
AcDbLine
 10
72.0895
 20
56.3537
 30
0
 11
72.0895
 21
43.5531
 31
0
  0
LINE
  5
A92
330
A02
100
AcDbEntity
  8
Sketch
100
AcDbLine
 10
72.0895
 20
43.5531
 30
0
 11
56.4887
 21
43.5531
 31
0
  0
LINE
  5
A93
330
A02
100
AcDbEntity
  8
Sketch
100
AcDbLine
 10
56.4887
 20
43.5531
 30
0
 11
56.4887
 21
56.3537
 31
0
  0
LINE
  5
A94
330
A02
100
AcDbEntity
  8
Sketch
100
AcDbLine
 10
75.5387
 20
56.3537
 30
0
 11
91.1395
 21
56.3537
 31
0
  0
LINE
  5
A95
330
A02
100
AcDbEntity
  8
Sketch
100
AcDbLine
 10
91.1395
 20
56.3537
 30
0
 11
91.1395
 21
43.5531
 31
0
  0
LINE
  5
A96
330
A02
100
AcDbEntity
  8
Sketch
100
AcDbLine
 10
91.1395
 20
43.5531
 30
0
 11
75.5387
 21
43.5531
 31
0
  0
LINE
  5
A97
330
A02
100
AcDbEntity
  8
Sketch
100
AcDbLine
 10
75.5387
 20
43.5531
 30
0
 11
75.5387
 21
56.3537
 31
0
  0
LINE
  5
A98
330
A02
100
AcDbEntity
  8
Sketch
100
AcDbLine
 10
94.5887
 20
56.3537
 30
0
 11
110.189
 21
56.3537
 31
0
  0
LINE
  5
A99
330
A02
100
AcDbEntity
  8
Sketch
100
AcDbLine
 10
110.189
 20
56.3537
 30
0
 11
110.189
 21
43.5531
 31
0
  0
LINE
  5
A9A
330
A02
100
AcDbEntity
  8
Sketch
100
AcDbLine
 10
110.189
 20
43.5531
 30
0
 11
94.5887
 21
43.5531
 31
0
  0
LINE
  5
A9B
330
A02
100
AcDbEntity
  8
Sketch
100
AcDbLine
 10
94.5887
 20
43.5531
 30
0
 11
94.5887
 21
56.3537
 31
0
  0
LINE
  5
A9C
330
A02
100
AcDbEntity
  8
Sketch
100
AcDbLine
 10
113.639
 20
56.3537
 30
0
 11
129.239
 21
56.3537
 31
0
  0
LINE
  5
A9D
330
A02
100
AcDbEntity
  8
Sketch
100
AcDbLine
 10
129.239
 20
56.3537
 30
0
 11
129.239
 21
43.5531
 31
0
  0
LINE
  5
A9E
330
A02
100
AcDbEntity
  8
Sketch
100
AcDbLine
 10
129.239
 20
43.5531
 30
0
 11
113.639
 21
43.5531
 31
0
  0
LINE
  5
A9F
330
A02
100
AcDbEntity
  8
Sketch
100
AcDbLine
 10
113.639
 20
43.5531
 30
0
 11
113.639
 21
56.3537
 31
0
  0
LINE
  5
AA0
330
A02
100
AcDbEntity
  8
Sketch
100
AcDbLine
 10
132.689
 20
56.3537
 30
0
 11
148.289
 21
56.3537
 31
0
  0
LINE
  5
AA1
330
A02
100
AcDbEntity
  8
Sketch
100
AcDbLine
 10
148.289
 20
56.3537
 30
0
 11
148.289
 21
43.5531
 31
0
  0
LINE
  5
AA2
330
A02
100
AcDbEntity
  8
Sketch
100
AcDbLine
 10
148.289
 20
43.5531
 30
0
 11
132.689
 21
43.5531
 31
0
  0
LINE
  5
AA3
330
A02
100
AcDbEntity
  8
Sketch
100
AcDbLine
 10
132.689
 20
43.5531
 30
0
 11
132.689
 21
56.3537
 31
0
  0
LINE
  5
AA4
330
A02
100
AcDbEntity
  8
Sketch
100
AcDbLine
 10
151.739
 20
56.3537
 30
0
 11
167.339
 21
56.3537
 31
0
  0
LINE
  5
AA5
330
A02
100
AcDbEntity
  8
Sketch
100
AcDbLine
 10
167.339
 20
56.3537
 30
0
 11
167.339
 21
43.5531
 31
0
  0
LINE
  5
AA6
330
A02
100
AcDbEntity
  8
Sketch
100
AcDbLine
 10
167.339
 20
43.5531
 30
0
 11
151.739
 21
43.5531
 31
0
  0
LINE
  5
AA7
330
A02
100
AcDbEntity
  8
Sketch
100
AcDbLine
 10
151.739
 20
43.5531
 30
0
 11
151.739
 21
56.3537
 31
0
  0
LINE
  5
AA8
330
A02
100
AcDbEntity
  8
Sketch
100
AcDbLine
 10
170.789
 20
56.3537
 30
0
 11
186.389
 21
56.3537
 31
0
  0
LINE
  5
AA9
330
A02
100
AcDbEntity
  8
Sketch
100
AcDbLine
 10
186.389
 20
56.3537
 30
0
 11
186.389
 21
43.5531
 31
0
  0
LINE
  5
AAA
330
A02
100
AcDbEntity
  8
Sketch
100
AcDbLine
 10
186.389
 20
43.5531
 30
0
 11
170.789
 21
43.5531
 31
0
  0
LINE
  5
AAB
330
A02
100
AcDbEntity
  8
Sketch
100
AcDbLine
 10
170.789
 20
43.5531
 30
0
 11
170.789
 21
56.3537
 31
0
  0
LINE
  5
AAC
330
A02
100
AcDbEntity
  8
Sketch
100
AcDbLine
 10
189.839
 20
56.3537
 30
0
 11
205.439
 21
56.3537
 31
0
  0
LINE
  5
AAD
330
A02
100
AcDbEntity
  8
Sketch
100
AcDbLine
 10
205.439
 20
56.3537
 30
0
 11
205.439
 21
43.5531
 31
0
  0
LINE
  5
AAE
330
A02
100
AcDbEntity
  8
Sketch
100
AcDbLine
 10
205.439
 20
43.5531
 30
0
 11
189.839
 21
43.5531
 31
0
  0
LINE
  5
AAF
330
A02
100
AcDbEntity
  8
Sketch
100
AcDbLine
 10
189.839
 20
43.5531
 30
0
 11
189.839
 21
56.3537
 31
0
  0
LINE
  5
AB0
330
A02
100
AcDbEntity
  8
Sketch
100
AcDbLine
 10
208.889
 20
56.3537
 30
0
 11
224.489
 21
56.3537
 31
0
  0
LINE
  5
AB1
330
A02
100
AcDbEntity
  8
Sketch
100
AcDbLine
 10
224.489
 20
56.3537
 30
0
 11
224.489
 21
43.5531
 31
0
  0
LINE
  5
AB2
330
A02
100
AcDbEntity
  8
Sketch
100
AcDbLine
 10
224.489
 20
43.5531
 30
0
 11
208.889
 21
43.5531
 31
0
  0
LINE
  5
AB3
330
A02
100
AcDbEntity
  8
Sketch
100
AcDbLine
 10
208.889
 20
43.5531
 30
0
 11
208.889
 21
56.3537
 31
0
  0
LINE
  5
AB4
330
A02
100
AcDbEntity
  8
Sketch
100
AcDbLine
 10
227.939
 20
56.3537
 30
0
 11
243.539
 21
56.3537
 31
0
  0
LINE
  5
AB5
330
A02
100
AcDbEntity
  8
Sketch
100
AcDbLine
 10
243.539
 20
56.3537
 30
0
 11
243.539
 21
43.5531
 31
0
  0
LINE
  5
AB6
330
A02
100
AcDbEntity
  8
Sketch
100
AcDbLine
 10
243.539
 20
43.5531
 30
0
 11
227.939
 21
43.5531
 31
0
  0
LINE
  5
AB7
330
A02
100
AcDbEntity
  8
Sketch
100
AcDbLine
 10
227.939
 20
43.5531
 30
0
 11
227.939
 21
56.3537
 31
0
  0
LINE
  5
AB8
330
A02
100
AcDbEntity
  8
Sketch
100
AcDbLine
 10
246.989
 20
56.3537
 30
0
 11
262.589
 21
56.3537
 31
0
  0
LINE
  5
AB9
330
A02
100
AcDbEntity
  8
Sketch
100
AcDbLine
 10
262.589
 20
56.3537
 30
0
 11
262.589
 21
43.5531
 31
0
  0
LINE
  5
ABA
330
A02
100
AcDbEntity
  8
Sketch
100
AcDbLine
 10
262.589
 20
43.5531
 30
0
 11
246.989
 21
43.5531
 31
0
  0
LINE
  5
ABB
330
A02
100
AcDbEntity
  8
Sketch
100
AcDbLine
 10
246.989
 20
43.5531
 30
0
 11
246.989
 21
56.3537
 31
0
  0
LINE
  5
ABC
330
A02
100
AcDbEntity
  8
Sketch
100
AcDbLine
 10
6.48249
 20
37.3037
 30
0
 11
22.0833
 21
37.3037
 31
0
  0
LINE
  5
ABD
330
A02
100
AcDbEntity
  8
Sketch
100
AcDbLine
 10
22.0833
 20
37.3037
 30
0
 11
22.0833
 21
24.5031
 31
0
  0
LINE
  5
ABE
330
A02
100
AcDbEntity
  8
Sketch
100
AcDbLine
 10
22.0833
 20
24.5031
 30
0
 11
6.48249
 21
24.5031
 31
0
  0
LINE
  5
ABF
330
A02
100
AcDbEntity
  8
Sketch
100
AcDbLine
 10
6.48249
 20
24.5031
 30
0
 11
6.48249
 21
37.3037
 31
0
  0
LINE
  5
AC0
330
A02
100
AcDbEntity
  8
Sketch
100
AcDbLine
 10
27.9137
 20
37.3037
 30
0
 11
43.5145
 21
37.3037
 31
0
  0
LINE
  5
AC1
330
A02
100
AcDbEntity
  8
Sketch
100
AcDbLine
 10
43.5145
 20
37.3037
 30
0
 11
43.5145
 21
24.5031
 31
0
  0
LINE
  5
AC2
330
A02
100
AcDbEntity
  8
Sketch
100
AcDbLine
 10
43.5145
 20
24.5031
 30
0
 11
27.9137
 21
24.5031
 31
0
  0
LINE
  5
AC3
330
A02
100
AcDbEntity
  8
Sketch
100
AcDbLine
 10
27.9137
 20
24.5031
 30
0
 11
27.9137
 21
37.3037
 31
0
  0
LINE
  5
AC4
330
A02
100
AcDbEntity
  8
Sketch
100
AcDbLine
 10
46.9637
 20
37.3037
 30
0
 11
62.5645
 21
37.3037
 31
0
  0
LINE
  5
AC5
330
A02
100
AcDbEntity
  8
Sketch
100
AcDbLine
 10
62.5645
 20
37.3037
 30
0
 11
62.5645
 21
24.5031
 31
0
  0
LINE
  5
AC6
330
A02
100
AcDbEntity
  8
Sketch
100
AcDbLine
 10
62.5645
 20
24.5031
 30
0
 11
46.9637
 21
24.5031
 31
0
  0
LINE
  5
AC7
330
A02
100
AcDbEntity
  8
Sketch
100
AcDbLine
 10
46.9637
 20
24.5031
 30
0
 11
46.9637
 21
37.3037
 31
0
  0
LINE
  5
AC8
330
A02
100
AcDbEntity
  8
Sketch
100
AcDbLine
 10
66.0137
 20
37.3037
 30
0
 11
81.6145
 21
37.3037
 31
0
  0
LINE
  5
AC9
330
A02
100
AcDbEntity
  8
Sketch
100
AcDbLine
 10
81.6145
 20
37.3037
 30
0
 11
81.6145
 21
24.5031
 31
0
  0
LINE
  5
ACA
330
A02
100
AcDbEntity
  8
Sketch
100
AcDbLine
 10
81.6145
 20
24.5031
 30
0
 11
66.0137
 21
24.5031
 31
0
  0
LINE
  5
ACB
330
A02
100
AcDbEntity
  8
Sketch
100
AcDbLine
 10
66.0137
 20
24.5031
 30
0
 11
66.0137
 21
37.3037
 31
0
  0
LINE
  5
ACC
330
A02
100
AcDbEntity
  8
Sketch
100
AcDbLine
 10
85.0637
 20
37.3037
 30
0
 11
100.664
 21
37.3037
 31
0
  0
LINE
  5
ACD
330
A02
100
AcDbEntity
  8
Sketch
100
AcDbLine
 10
100.664
 20
37.3037
 30
0
 11
100.664
 21
24.5031
 31
0
  0
LINE
  5
ACE
330
A02
100
AcDbEntity
  8
Sketch
100
AcDbLine
 10
100.664
 20
24.5031
 30
0
 11
85.0637
 21
24.5031
 31
0
  0
LINE
  5
ACF
330
A02
100
AcDbEntity
  8
Sketch
100
AcDbLine
 10
85.0637
 20
24.5031
 30
0
 11
85.0637
 21
37.3037
 31
0
  0
LINE
  5
AD0
330
A02
100
AcDbEntity
  8
Sketch
100
AcDbLine
 10
104.114
 20
37.3037
 30
0
 11
119.714
 21
37.3037
 31
0
  0
LINE
  5
AD1
330
A02
100
AcDbEntity
  8
Sketch
100
AcDbLine
 10
119.714
 20
37.3037
 30
0
 11
119.714
 21
24.5031
 31
0
  0
LINE
  5
AD2
330
A02
100
AcDbEntity
  8
Sketch
100
AcDbLine
 10
119.714
 20
24.5031
 30
0
 11
104.114
 21
24.5031
 31
0
  0
LINE
  5
AD3
330
A02
100
AcDbEntity
  8
Sketch
100
AcDbLine
 10
104.114
 20
24.5031
 30
0
 11
104.114
 21
37.3037
 31
0
  0
LINE
  5
AD4
330
A02
100
AcDbEntity
  8
Sketch
100
AcDbLine
 10
123.164
 20
37.3037
 30
0
 11
138.764
 21
37.3037
 31
0
  0
LINE
  5
AD5
330
A02
100
AcDbEntity
  8
Sketch
100
AcDbLine
 10
138.764
 20
37.3037
 30
0
 11
138.764
 21
24.5031
 31
0
  0
LINE
  5
AD6
330
A02
100
AcDbEntity
  8
Sketch
100
AcDbLine
 10
138.764
 20
24.5031
 30
0
 11
123.164
 21
24.5031
 31
0
  0
LINE
  5
AD7
330
A02
100
AcDbEntity
  8
Sketch
100
AcDbLine
 10
123.164
 20
24.5031
 30
0
 11
123.164
 21
37.3037
 31
0
  0
LINE
  5
AD8
330
A02
100
AcDbEntity
  8
Sketch
100
AcDbLine
 10
142.214
 20
37.3037
 30
0
 11
157.814
 21
37.3037
 31
0
  0
LINE
  5
AD9
330
A02
100
AcDbEntity
  8
Sketch
100
AcDbLine
 10
157.814
 20
37.3037
 30
0
 11
157.814
 21
24.5031
 31
0
  0
LINE
  5
ADA
330
A02
100
AcDbEntity
  8
Sketch
100
AcDbLine
 10
157.814
 20
24.5031
 30
0
 11
142.214
 21
24.5031
 31
0
  0
LINE
  5
ADB
330
A02
100
AcDbEntity
  8
Sketch
100
AcDbLine
 10
142.214
 20
24.5031
 30
0
 11
142.214
 21
37.3037
 31
0
  0
LINE
  5
ADC
330
A02
100
AcDbEntity
  8
Sketch
100
AcDbLine
 10
161.264
 20
37.3037
 30
0
 11
176.864
 21
37.3037
 31
0
  0
LINE
  5
ADD
330
A02
100
AcDbEntity
  8
Sketch
100
AcDbLine
 10
176.864
 20
37.3037
 30
0
 11
176.864
 21
24.5031
 31
0
  0
LINE
  5
ADE
330
A02
100
AcDbEntity
  8
Sketch
100
AcDbLine
 10
176.864
 20
24.5031
 30
0
 11
161.264
 21
24.5031
 31
0
  0
LINE
  5
ADF
330
A02
100
AcDbEntity
  8
Sketch
100
AcDbLine
 10
161.264
 20
24.5031
 30
0
 11
161.264
 21
37.3037
 31
0
  0
LINE
  5
AE0
330
A02
100
AcDbEntity
  8
Sketch
100
AcDbLine
 10
180.314
 20
37.3037
 30
0
 11
195.914
 21
37.3037
 31
0
  0
LINE
  5
AE1
330
A02
100
AcDbEntity
  8
Sketch
100
AcDbLine
 10
195.914
 20
37.3037
 30
0
 11
195.914
 21
24.5031
 31
0
  0
LINE
  5
AE2
330
A02
100
AcDbEntity
  8
Sketch
100
AcDbLine
 10
195.914
 20
24.5031
 30
0
 11
180.314
 21
24.5031
 31
0
  0
LINE
  5
AE3
330
A02
100
AcDbEntity
  8
Sketch
100
AcDbLine
 10
180.314
 20
24.5031
 30
0
 11
180.314
 21
37.3037
 31
0
  0
LINE
  5
AE4
330
A02
100
AcDbEntity
  8
Sketch
100
AcDbLine
 10
199.364
 20
37.3037
 30
0
 11
214.964
 21
37.3037
 31
0
  0
LINE
  5
AE5
330
A02
100
AcDbEntity
  8
Sketch
100
AcDbLine
 10
214.964
 20
37.3037
 30
0
 11
214.964
 21
24.5031
 31
0
  0
LINE
  5
AE6
330
A02
100
AcDbEntity
  8
Sketch
100
AcDbLine
 10
214.964
 20
24.5031
 30
0
 11
199.364
 21
24.5031
 31
0
  0
LINE
  5
AE7
330
A02
100
AcDbEntity
  8
Sketch
100
AcDbLine
 10
199.364
 20
24.5031
 30
0
 11
199.364
 21
37.3037
 31
0
  0
LINE
  5
AE8
330
A02
100
AcDbEntity
  8
Sketch
100
AcDbLine
 10
218.414
 20
37.3037
 30
0
 11
234.014
 21
37.3037
 31
0
  0
LINE
  5
AE9
330
A02
100
AcDbEntity
  8
Sketch
100
AcDbLine
 10
234.014
 20
37.3037
 30
0
 11
234.014
 21
24.5031
 31
0
  0
LINE
  5
AEA
330
A02
100
AcDbEntity
  8
Sketch
100
AcDbLine
 10
234.014
 20
24.5031
 30
0
 11
218.414
 21
24.5031
 31
0
  0
LINE
  5
AEB
330
A02
100
AcDbEntity
  8
Sketch
100
AcDbLine
 10
218.414
 20
24.5031
 30
0
 11
218.414
 21
37.3037
 31
0
  0
LINE
  5
AEC
330
A02
100
AcDbEntity
  8
Sketch
100
AcDbLine
 10
254.131
 20
37.3037
 30
0
 11
269.731
 21
37.3037
 31
0
  0
LINE
  5
AED
330
A02
100
AcDbEntity
  8
Sketch
100
AcDbLine
 10
269.731
 20
37.3037
 30
0
 11
269.731
 21
24.5031
 31
0
  0
LINE
  5
AEE
330
A02
100
AcDbEntity
  8
Sketch
100
AcDbLine
 10
269.731
 20
24.5031
 30
0
 11
254.131
 21
24.5031
 31
0
  0
LINE
  5
AEF
330
A02
100
AcDbEntity
  8
Sketch
100
AcDbLine
 10
254.131
 20
24.5031
 30
0
 11
254.131
 21
37.3037
 31
0
  0
LINE
  5
AF0
330
A02
100
AcDbEntity
  8
Sketch
100
AcDbLine
 10
239.009
 20
27.0304
 30
0
 11
241.676
 21
27.0304
 31
0
  0
LINE
  5
AF1
330
A02
100
AcDbEntity
  8
Sketch
100
AcDbLine
 10
241.676
 20
27.0304
 30
0
 11
241.676
 21
21.8188
 31
0
  0
LINE
  5
AF2
330
A02
100
AcDbEntity
  8
Sketch
100
AcDbLine
 10
241.676
 20
21.8188
 30
0
 11
239.009
 21
21.8188
 31
0
  0
LINE
  5
AF3
330
A02
100
AcDbEntity
  8
Sketch
100
AcDbLine
 10
239.009
 20
21.8188
 30
0
 11
239.009
 21
27.0304
 31
0
  0
LINE
  5
AF4
330
A02
100
AcDbEntity
  8
Sketch
100
AcDbLine
 10
282.189
 20
27.0304
 30
0
 11
284.856
 21
27.0304
 31
0
  0
LINE
  5
AF5
330
A02
100
AcDbEntity
  8
Sketch
100
AcDbLine
 10
284.856
 20
27.0304
 30
0
 11
284.856
 21
21.8188
 31
0
  0
LINE
  5
AF6
330
A02
100
AcDbEntity
  8
Sketch
100
AcDbLine
 10
284.856
 20
21.8188
 30
0
 11
282.189
 21
21.8188
 31
0
  0
LINE
  5
AF7
330
A02
100
AcDbEntity
  8
Sketch
100
AcDbLine
 10
282.189
 20
21.8188
 30
0
 11
282.189
 21
27.0304
 31
0
  0
LINE
  5
AF8
330
A02
100
AcDbEntity
  8
Sketch
100
AcDbLine
 10
8.86238
 20
18.2537
 30
0
 11
24.4632
 21
18.2537
 31
0
  0
LINE
  5
AF9
330
A02
100
AcDbEntity
  8
Sketch
100
AcDbLine
 10
24.4632
 20
18.2537
 30
0
 11
24.4632
 21
5.45312
 31
0
  0
LINE
  5
AFA
330
A02
100
AcDbEntity
  8
Sketch
100
AcDbLine
 10
24.4632
 20
5.45312
 30
0
 11
8.86238
 21
5.45312
 31
0
  0
LINE
  5
AFB
330
A02
100
AcDbEntity
  8
Sketch
100
AcDbLine
 10
8.86238
 20
5.45312
 30
0
 11
8.86238
 21
18.2537
 31
0
  0
LINE
  5
AFC
330
A02
100
AcDbEntity
  8
Sketch
100
AcDbLine
 10
32.6749
 20
18.2537
 30
0
 11
48.2757
 21
18.2537
 31
0
  0
LINE
  5
AFD
330
A02
100
AcDbEntity
  8
Sketch
100
AcDbLine
 10
48.2757
 20
18.2537
 30
0
 11
48.2757
 21
5.45312
 31
0
  0
LINE
  5
AFE
330
A02
100
AcDbEntity
  8
Sketch
100
AcDbLine
 10
48.2757
 20
5.45312
 30
0
 11
32.6749
 21
5.45312
 31
0
  0
LINE
  5
AFF
330
A02
100
AcDbEntity
  8
Sketch
100
AcDbLine
 10
32.6749
 20
5.45312
 30
0
 11
32.6749
 21
18.2537
 31
0
  0
LINE
  5
B00
330
A02
100
AcDbEntity
  8
Sketch
100
AcDbLine
 10
56.4861
 20
18.2537
 30
0
 11
72.0869
 21
18.2537
 31
0
  0
LINE
  5
B01
330
A02
100
AcDbEntity
  8
Sketch
100
AcDbLine
 10
72.0869
 20
18.2537
 30
0
 11
72.0869
 21
5.45312
 31
0
  0
LINE
  5
B02
330
A02
100
AcDbEntity
  8
Sketch
100
AcDbLine
 10
72.0869
 20
5.45312
 30
0
 11
56.4861
 21
5.45312
 31
0
  0
LINE
  5
B03
330
A02
100
AcDbEntity
  8
Sketch
100
AcDbLine
 10
56.4861
 20
5.45312
 30
0
 11
56.4861
 21
18.2537
 31
0
  0
LINE
  5
B04
330
A02
100
AcDbEntity
  8
Sketch
100
AcDbLine
 10
137.45
 20
18.2537
 30
0
 11
153.05
 21
18.2537
 31
0
  0
LINE
  5
B05
330
A02
100
AcDbEntity
  8
Sketch
100
AcDbLine
 10
153.05
 20
18.2537
 30
0
 11
153.05
 21
5.45312
 31
0
  0
LINE
  5
B06
330
A02
100
AcDbEntity
  8
Sketch
100
AcDbLine
 10
153.05
 20
5.45312
 30
0
 11
137.45
 21
5.45312
 31
0
  0
LINE
  5
B07
330
A02
100
AcDbEntity
  8
Sketch
100
AcDbLine
 10
137.45
 20
5.45312
 30
0
 11
137.45
 21
18.2537
 31
0
  0
LINE
  5
B08
330
A02
100
AcDbEntity
  8
Sketch
100
AcDbLine
 10
218.411
 20
18.2537
 30
0
 11
234.011
 21
18.2537
 31
0
  0
LINE
  5
B09
330
A02
100
AcDbEntity
  8
Sketch
100
AcDbLine
 10
234.011
 20
18.2537
 30
0
 11
234.011
 21
5.45312
 31
0
  0
LINE
  5
B0A
330
A02
100
AcDbEntity
  8
Sketch
100
AcDbLine
 10
234.011
 20
5.45312
 30
0
 11
218.411
 21
5.45312
 31
0
  0
LINE
  5
B0B
330
A02
100
AcDbEntity
  8
Sketch
100
AcDbLine
 10
218.411
 20
5.45312
 30
0
 11
218.411
 21
18.2537
 31
0
  0
LINE
  5
B0C
330
A02
100
AcDbEntity
  8
Sketch
100
AcDbLine
 10
242.225
 20
18.2537
 30
0
 11
257.825
 21
18.2537
 31
0
  0
LINE
  5
B0D
330
A02
100
AcDbEntity
  8
Sketch
100
AcDbLine
 10
257.825
 20
18.2537
 30
0
 11
257.825
 21
5.45312
 31
0
  0
LINE
  5
B0E
330
A02
100
AcDbEntity
  8
Sketch
100
AcDbLine
 10
257.825
 20
5.45312
 30
0
 11
242.225
 21
5.45312
 31
0
  0
LINE
  5
B0F
330
A02
100
AcDbEntity
  8
Sketch
100
AcDbLine
 10
242.225
 20
5.45312
 30
0
 11
242.225
 21
18.2537
 31
0
  0
LINE
  5
B10
330
A02
100
AcDbEntity
  8
Sketch
100
AcDbLine
 10
266.036
 20
18.2537
 30
0
 11
281.636
 21
18.2537
 31
0
  0
LINE
  5
B11
330
A02
100
AcDbEntity
  8
Sketch
100
AcDbLine
 10
281.636
 20
18.2537
 30
0
 11
281.636
 21
5.45312
 31
0
  0
LINE
  5
B12
330
A02
100
AcDbEntity
  8
Sketch
100
AcDbLine
 10
281.636
 20
5.45312
 30
0
 11
266.036
 21
5.45312
 31
0
  0
LINE
  5
B13
330
A02
100
AcDbEntity
  8
Sketch
100
AcDbLine
 10
266.036
 20
5.45312
 30
0
 11
266.036
 21
18.2537
 31
0
  0
LINE
  5
B14
330
A02
100
AcDbEntity
  8
Sketch
100
AcDbLine
 10
101.916
 20
7.97761
 30
0
 11
104.583
 21
7.97761
 31
0
  0
LINE
  5
B15
330
A02
100
AcDbEntity
  8
Sketch
100
AcDbLine
 10
104.583
 20
7.97761
 30
0
 11
104.583
 21
2.76601
 31
0
  0
LINE
  5
B16
330
A02
100
AcDbEntity
  8
Sketch
100
AcDbLine
 10
104.583
 20
2.76601
 30
0
 11
101.916
 21
2.76601
 31
0
  0
LINE
  5
B17
330
A02
100
AcDbEntity
  8
Sketch
100
AcDbLine
 10
101.916
 20
2.76601
 30
0
 11
101.916
 21
7.97761
 31
0
  0
LINE
  5
B18
330
A02
100
AcDbEntity
  8
Sketch
100
AcDbLine
 10
185.916
 20
7.97761
 30
0
 11
188.583
 21
7.97761
 31
0
  0
LINE
  5
B19
330
A02
100
AcDbEntity
  8
Sketch
100
AcDbLine
 10
188.583
 20
7.97761
 30
0
 11
188.583
 21
2.76601
 31
0
  0
LINE
  5
B1A
330
A02
100
AcDbEntity
  8
Sketch
100
AcDbLine
 10
188.583
 20
2.76601
 30
0
 11
185.916
 21
2.76601
 31
0
  0
LINE
  5
B1B
330
A02
100
AcDbEntity
  8
Sketch
100
AcDbLine
 10
185.916
 20
2.76601
 30
0
 11
185.916
 21
7.97761
 31
0
  0
LINE
  5
B1C
330
A02
100
AcDbEntity
  8
Sketch
100
AcDbLine
 10
102.875
 20
12.9541
 30
0
 11
105.075
 21
12.9541
 31
0
  0
LINE
  5
B1D
330
A02
100
AcDbEntity
  8
Sketch
100
AcDbLine
 10
105.075
 20
12.9541
 30
0
 11
105.075
 21
10.7541
 31
0
  0
LINE
  5
B1E
330
A02
100
AcDbEntity
  8
Sketch
100
AcDbLine
 10
105.075
 20
10.7541
 30
0
 11
102.875
 21
10.7541
 31
0
  0
LINE
  5
B1F
330
A02
100
AcDbEntity
  8
Sketch
100
AcDbLine
 10
102.875
 20
10.7541
 30
0
 11
102.875
 21
12.9541
 31
0
  0
LINE
  5
B20
330
A02
100
AcDbEntity
  8
Sketch
100
AcDbLine
 10
114.825
 20
12.9541
 30
0
 11
117.025
 21
12.9541
 31
0
  0
LINE
  5
B21
330
A02
100
AcDbEntity
  8
Sketch
100
AcDbLine
 10
117.025
 20
12.9541
 30
0
 11
117.025
 21
10.7541
 31
0
  0
LINE
  5
B22
330
A02
100
AcDbEntity
  8
Sketch
100
AcDbLine
 10
117.025
 20
10.7541
 30
0
 11
114.825
 21
10.7541
 31
0
  0
LINE
  5
B23
330
A02
100
AcDbEntity
  8
Sketch
100
AcDbLine
 10
114.825
 20
10.7541
 30
0
 11
114.825
 21
12.9541
 31
0
  0
LINE
  5
B24
330
A02
100
AcDbEntity
  8
Sketch
100
AcDbLine
 10
185.425
 20
12.9541
 30
0
 11
187.625
 21
12.9541
 31
0
  0
LINE
  5
B25
330
A02
100
AcDbEntity
  8
Sketch
100
AcDbLine
 10
187.625
 20
12.9541
 30
0
 11
187.625
 21
10.7541
 31
0
  0
LINE
  5
B26
330
A02
100
AcDbEntity
  8
Sketch
100
AcDbLine
 10
187.625
 20
10.7541
 30
0
 11
185.425
 21
10.7541
 31
0
  0
LINE
  5
B27
330
A02
100
AcDbEntity
  8
Sketch
100
AcDbLine
 10
185.425
 20
10.7541
 30
0
 11
185.425
 21
12.9541
 31
0
  0
LINE
  5
B28
330
A02
100
AcDbEntity
  8
Sketch
100
AcDbLine
 10
173.475
 20
10.7541
 30
0
 11
175.675
 21
10.7541
 31
0
  0
LINE
  5
B29
330
A02
100
AcDbEntity
  8
Sketch
100
AcDbLine
 10
175.675
 20
10.7541
 30
0
 11
175.675
 21
12.9541
 31
0
  0
LINE
  5
B2A
330
A02
100
AcDbEntity
  8
Sketch
100
AcDbLine
 10
175.675
 20
12.9541
 30
0
 11
173.475
 21
12.9541
 31
0
  0
LINE
  5
B2B
330
A02
100
AcDbEntity
  8
Sketch
100
AcDbLine
 10
173.475
 20
12.9541
 30
0
 11
173.475
 21
10.7541
 31
0
  0
CIRCLE
  5
B2C
330
A02
100
AcDbEntity
  8
Sketch
100
AcDbCircle
 10
109.95
 20
11.8541
 40
3.125
  0
CIRCLE
  5
B2D
330
A02
100
AcDbEntity
  8
Sketch
100
AcDbCircle
 10
180.55
 20
11.8541
 40
3.125
  0
LINE
  5
B2E
330
A02
100
AcDbEntity
  8
Sketch
100
AcDbLine
 10
0
 20
2
 30
0
 11
0
 21
98.002
 31
0
  0
ARC
  5
B2F
330
A02
100
AcDbEntity
  8
Sketch
100
AcDbCircle
 10
2
 20
98.002
 30
0
 40
2
100
AcDbArc
 50
90
 51
180
  0
LINE
  5
B30
330
A02
100
AcDbEntity
  8
Sketch
100
AcDbLine
 10
2
 20
100.002
 30
0
 11
32.5449
 21
100.002
 31
0
  0
LINE
  5
B31
330
A02
100
AcDbEntity
  8
Sketch
100
AcDbLine
 10
32.5449
 20
100.002
 30
0
 11
33.0198
 21
99.916
 31
0
  0
ARC
  5
B32
330
A02
100
AcDbEntity
  8
Sketch
100
AcDbCircle
 10
32.619
 20
97.702
 30
0
 40
2.25
100
AcDbArc
 50
34.4174
 51
79.7369
  0
ARC
  5
B33
330
A02
100
AcDbEntity
  8
Sketch
100
AcDbCircle
 10
36.4137
 20
100.302
 30
0
 40
2.35
100
AcDbArc
 50
-145.583
 51
-90
  0
LINE
  5
B34
330
A02
100
AcDbEntity
  8
Sketch
100
AcDbLine
 10
36.4137
 20
97.952
 30
0
 11
40.153
 21
97.952
 31
0
  0
ARC
  5
B35
330
A02
100
AcDbEntity
  8
Sketch
100
AcDbCircle
 10
40.153
 20
100.302
 30
0
 40
2.35
100
AcDbArc
 50
-90
 51
-34.4174
  0
ARC
  5
B36
330
A02
100
AcDbEntity
  8
Sketch
100
AcDbCircle
 10
43.9477
 20
97.702
 30
0
 40
2.25
100
AcDbArc
 50
100.263
 51
145.583
  0
LINE
  5
B37
330
A02
100
AcDbEntity
  8
Sketch
100
AcDbLine
 10
43.5468
 20
99.916
 30
0
 11
44.0218
 21
100.002
 31
0
  0
LINE
  5
B38
330
A02
100
AcDbEntity
  8
Sketch
100
AcDbLine
 10
44.0218
 20
100.002
 30
0
 11
139.415
 21
100.002
 31
0
  0
LINE
  5
B39
330
A02
100
AcDbEntity
  8
Sketch
100
AcDbLine
 10
139.415
 20
100.002
 30
0
 11
139.873
 21
99.916
 31
0
  0
ARC
  5
B3A
330
A02
100
AcDbEntity
  8
Sketch
100
AcDbCircle
 10
139.472
 20
97.702
 30
0
 40
2.25
100
AcDbArc
 50
34.4174
 51
79.7368
  0
ARC
  5
B3B
330
A02
100
AcDbEntity
  8
Sketch
100
AcDbCircle
 10
143.267
 20
100.302
 30
0
 40
2.35
100
AcDbArc
 50
-145.583
 51
-90
  0
LINE
  5
B3C
330
A02
100
AcDbEntity
  8
Sketch
100
AcDbLine
 10
143.267
 20
97.952
 30
0
 11
147.006
 21
97.952
 31
0
  0
ARC
  5
B3D
330
A02
100
AcDbEntity
  8
Sketch
100
AcDbCircle
 10
147.006
 20
100.302
 30
0
 40
2.35
100
AcDbArc
 50
-90
 51
-34.4174
  0
ARC
  5
B3E
330
A02
100
AcDbEntity
  8
Sketch
100
AcDbCircle
 10
150.801
 20
97.702
 30
0
 40
2.25
100
AcDbArc
 50
100.263
 51
145.583
  0
LINE
  5
B3F
330
A02
100
AcDbEntity
  8
Sketch
100
AcDbLine
 10
150.4
 20
99.916
 30
0
 11
150.875
 21
100.002
 31
0
  0
LINE
  5
B40
330
A02
100
AcDbEntity
  8
Sketch
100
AcDbLine
 10
150.875
 20
100.002
 30
0
 11
246.252
 21
100.002
 31
0
  0
LINE
  5
B41
330
A02
100
AcDbEntity
  8
Sketch
100
AcDbLine
 10
246.726
 20
99.916
 30
0
 11
246.252
 21
100.002
 31
0
  0
ARC
  5
B42
330
A02
100
AcDbEntity
  8
Sketch
100
AcDbCircle
 10
246.326
 20
97.702
 30
0
 40
2.25
100
AcDbArc
 50
34.4174
 51
79.7369
  0
ARC
  5
B43
330
A02
100
AcDbEntity
  8
Sketch
100
AcDbCircle
 10
250.12
 20
100.302
 30
0
 40
2.35
100
AcDbArc
 50
-145.583
 51
-90
  0
LINE
  5
B44
330
A02
100
AcDbEntity
  8
Sketch
100
AcDbLine
 10
250.12
 20
97.952
 30
0
 11
253.86
 21
97.952
 31
0
  0
ARC
  5
B45
330
A02
100
AcDbEntity
  8
Sketch
100
AcDbCircle
 10
253.86
 20
100.302
 30
0
 40
2.35
100
AcDbArc
 50
-90
 51
-34.4174
  0
ARC
  5
B46
330
A02
100
AcDbEntity
  8
Sketch
100
AcDbCircle
 10
257.654
 20
97.702
 30
0
 40
2.25
100
AcDbArc
 50
100.263
 51
145.583
  0
LINE
  5
B47
330
A02
100
AcDbEntity
  8
Sketch
100
AcDbLine
 10
257.253
 20
99.916
 30
0
 11
257.892
 21
100.002
 31
0
  0
LINE
  5
B48
330
A02
100
AcDbEntity
  8
Sketch
100
AcDbLine
 10
257.892
 20
100.002
 30
0
 11
288.5
 21
100.002
 31
0
  0
ARC
  5
B49
330
A02
100
AcDbEntity
  8
Sketch
100
AcDbCircle
 10
288.5
 20
98.002
 30
0
 40
2
100
AcDbArc
 50
0
 51
90
  0
LINE
  5
B4A
330
A02
100
AcDbEntity
  8
Sketch
100
AcDbLine
 10
290.5
 20
98.002
 30
0
 11
290.5
 21
2
 31
0
  0
ARC
  5
B4B
330
A02
100
AcDbEntity
  8
Sketch
100
AcDbCircle
 10
288.5
 20
2
 30
0
 40
2
100
AcDbArc
 50
-90
 51
-1.27222e-14
  0
LINE
  5
B4C
330
A02
100
AcDbEntity
  8
Sketch
100
AcDbLine
 10
288.5
 20
1.22232e-06
 30
0
 11
273.618
 21
1.22232e-06
 31
0
  0
LINE
  5
B4D
330
A02
100
AcDbEntity
  8
Sketch
100
AcDbLine
 10
273.148
 20
0.0877561
 30
0
 11
273.618
 21
1.22232e-06
 31
0
  0
ARC
  5
B4E
330
A02
100
AcDbEntity
  8
Sketch
100
AcDbCircle
 10
273.561
 20
2.29957
 30
0
 40
2.25
100
AcDbArc
 50
-147.865
 51
-100.571
  0
ARC
  5
B4F
330
A02
100
AcDbEntity
  8
Sketch
100
AcDbCircle
 10
269.581
 20
-0.200426
 30
0
 40
2.45
100
AcDbArc
 50
32.1349
 51
90
  0
LINE
  5
B50
330
A02
100
AcDbEntity
  8
Sketch
100
AcDbLine
 10
264.681
 20
2.24957
 30
0
 11
269.581
 21
2.24957
 31
0
  0
ARC
  5
B51
330
A02
100
AcDbEntity
  8
Sketch
100
AcDbCircle
 10
264.681
 20
-0.200426
 30
0
 40
2.45
100
AcDbArc
 50
90
 51
147.865
  0
ARC
  5
B52
330
A02
100
AcDbEntity
  8
Sketch
100
AcDbCircle
 10
260.701
 20
2.29957
 30
0
 40
2.25
100
AcDbArc
 50
-79.4295
 51
-32.1349
  0
LINE
  5
B53
330
A02
100
AcDbEntity
  8
Sketch
100
AcDbLine
 10
260.643
 20
-1.37105e-06
 30
0
 11
261.114
 21
0.0877536
 31
0
  0
LINE
  5
B54
330
A02
100
AcDbEntity
  8
Sketch
100
AcDbLine
 10
260.643
 20
-1.37105e-06
 30
0
 11
151.468
 21
-1.37105e-06
 31
0
  0
LINE
  5
B55
330
A02
100
AcDbEntity
  8
Sketch
100
AcDbLine
 10
150.998
 20
0.0883958
 30
0
 11
151.468
 21
-1.37105e-06
 31
0
  0
ARC
  5
B56
330
A02
100
AcDbEntity
  8
Sketch
100
AcDbCircle
 10
151.414
 20
2.29967
 30
0
 40
2.25
100
AcDbArc
 50
-146.483
 51
-100.646
  0
ARC
  5
B57
330
A02
100
AcDbEntity
  8
Sketch
100
AcDbCircle
 10
147.495
 20
-0.295571
 30
0
 40
2.45
100
AcDbArc
 50
33.5166
 51
90
  0
LINE
  5
B58
330
A02
100
AcDbEntity
  8
Sketch
100
AcDbLine
 10
142.466
 20
2.15443
 30
0
 11
147.495
 21
2.15443
 31
0
  0
ARC
  5
B59
330
A02
100
AcDbEntity
  8
Sketch
100
AcDbCircle
 10
142.469
 20
-0.29557
 30
0
 40
2.45
100
AcDbArc
 50
90.0609
 51
146.529
  0
ARC
  5
B5A
330
A02
100
AcDbEntity
  8
Sketch
100
AcDbCircle
 10
138.549
 20
2.29657
 30
0
 40
2.25
100
AcDbArc
 50
-79.7369
 51
-33.4713
  0
LINE
  5
B5B
330
A02
100
AcDbEntity
  8
Sketch
100
AcDbLine
 10
138.493
 20
-2.86152e-08
 30
0
 11
138.949
 21
0.0825681
 31
0
  0
LINE
  5
B5C
330
A02
100
AcDbEntity
  8
Sketch
100
AcDbLine
 10
138.493
 20
-2.86152e-08
 30
0
 11
29.8851
 21
-2.86152e-08
 31
0
  0
LINE
  5
B5D
330
A02
100
AcDbEntity
  8
Sketch
100
AcDbLine
 10
29.4125
 20
0.0855744
 30
0
 11
29.8851
 21
-2.86152e-08
 31
0
  0
ARC
  5
B5E
330
A02
100
AcDbEntity
  8
Sketch
100
AcDbCircle
 10
29.8134
 20
2.29957
 30
0
 40
2.25
100
AcDbArc
 50
-147.865
 51
-100.263
  0
ARC
  5
B5F
330
A02
100
AcDbEntity
  8
Sketch
100
AcDbCircle
 10
25.8334
 20
-0.200424
 30
0
 40
2.45
100
AcDbArc
 50
32.1349
 51
90
  0
LINE
  5
B60
330
A02
100
AcDbEntity
  8
Sketch
100
AcDbLine
 10
20.9335
 20
2.24958
 30
0
 11
25.8334
 21
2.24958
 31
0
  0
ARC
  5
B61
330
A02
100
AcDbEntity
  8
Sketch
100
AcDbCircle
 10
20.9335
 20
-0.200424
 30
0
 40
2.45
100
AcDbArc
 50
90
 51
147.865
  0
ARC
  5
B62
330
A02
100
AcDbEntity
  8
Sketch
100
AcDbCircle
 10
16.9536
 20
2.29957
 30
0
 40
2.25
100
AcDbArc
 50
-79.4295
 51
-32.1349
  0
LINE
  5
B63
330
A02
100
AcDbEntity
  8
Sketch
100
AcDbLine
 10
16.8961
 20
4.72717e-15
 30
0
 11
17.3663
 21
0.0877548
 31
0
  0
LINE
  5
B64
330
A02
100
AcDbEntity
  8
Sketch
100
AcDbLine
 10
16.8961
 20
4.72717e-15
 30
0
 11
2
 21
4.72717e-15
 31
0
  0
ARC
  5
B65
330
A02
100
AcDbEntity
  8
Sketch
100
AcDbCircle
 10
2
 20
2
 30
0
 40
2
100
AcDbArc
 50
180
 51
-90
  0
CIRCLE
  5
B66
330
A02
100
AcDbEntity
  8
Sketch
100
AcDbCircle
 10
1.58579
 20
98.4162
 40
0.98
  0
CIRCLE
  5
B67
330
A02
100
AcDbEntity
  8
Sketch
100
AcDbCircle
 10
288.914
 20
98.412
 40
0.93
  0
CIRCLE
  5
B68
330
A02
100
AcDbEntity
  8
Sketch
100
AcDbCircle
 10
288.914
 20
1.58536
 40
0.93
  0
CIRCLE
  5
B69
330
A02
100
AcDbEntity
  8
Sketch
100
AcDbCircle
 10
1.58579
 20
1.58536
 40
0.93
  0
LINE
  5
B6A
330
A02
100
AcDbEntity
  8
Sketch
100
AcDbLine
 10
185.916
 20
20.9408
 30
0
 11
188.583
 21
20.9408
 31
0
  0
LINE
  5
B6B
330
A02
100
AcDbEntity
  8
Sketch
100
AcDbLine
 10
188.583
 20
20.9408
 30
0
 11
188.583
 21
15.7292
 31
0
  0
LINE
  5
B6C
330
A02
100
AcDbEntity
  8
Sketch
100
AcDbLine
 10
188.583
 20
15.7292
 30
0
 11
185.916
 21
15.7292
 31
0
  0
LINE
  5
B6D
330
A02
100
AcDbEntity
  8
Sketch
100
AcDbLine
 10
185.916
 20
15.7292
 30
0
 11
185.916
 21
20.9408
 31
0
  0
LINE
  5
B6E
330
A02
100
AcDbEntity
  8
Sketch
100
AcDbLine
 10
101.916
 20
20.9408
 30
0
 11
104.583
 21
20.9408
 31
0
  0
LINE
  5
B6F
330
A02
100
AcDbEntity
  8
Sketch
100
AcDbLine
 10
104.583
 20
20.9408
 30
0
 11
104.583
 21
15.7292
 31
0
  0
LINE
  5
B70
330
A02
100
AcDbEntity
  8
Sketch
100
AcDbLine
 10
104.583
 20
15.7292
 30
0
 11
101.916
 21
15.7292
 31
0
  0
LINE
  5
B71
330
A02
100
AcDbEntity
  8
Sketch
100
AcDbLine
 10
101.916
 20
15.7292
 30
0
 11
101.916
 21
20.9408
 31
0
  0
ENDSEC
  0
SECTION
  2
OBJECTS
  0
DICTIONARY
  5
F000
330
0
100
AcDbDictionary
  3
ACAD_GROUP
350
F001
  0
DICTIONARY
  5
F001
330
F000
100
AcDbDictionary
  0
ENDSEC
  0
EOF